<svg width="32" height="32" viewBox="0 0 32 32" xmlns="http://www.w3.org/2000/svg">
  <!-- Blue background -->
  <rect width="32" height="32" rx="6" ry="6" fill="#025384"/>
  
  <!-- Simplified logo symbol from 2.svg -->
  <g transform="translate(4, 6) scale(0.04)">
    <!-- Main logo shape -->
    <path fill="#2c794d" d="M 580 310 C 587 297 591 283 591 269 C 591 264 591 259 590 254 C 587 273 577 289 563 301 C 555 307 543 306 536 298 L 525 282 C 522 279 519 278 516 278 L 471 278 C 468 278 466 281 468 284 L 470 287 C 473 294 479 298 487 299 L 490 299 L 501 300 C 504 300 507 302 509 305 L 514 314 L 517 319 L 534 346 C 534 346 534 347 535 347 C 536 348 538 348 539 348 C 582 337 616 302 623 257 C 616 280 601 299 580 310"/>
    <path fill="#f0f5fe" d="M 506 307 C 505 305 503 304 501 304 L 486 303 C 478 302 470 297 466 289 L 464 286 C 463 283 463 280 464 278 C 466 276 468 274 471 274 L 486 274 C 481 267 472 263 464 263 L 449 265 C 442 265 437 261 435 255 C 435 250 434 245 434 240 C 434 215 446 193 464 178 C 446 190 432 208 424 228 C 431 179 474 140 526 140 C 558 140 586 155 605 178 C 585 148 551 129 513 129 C 452 129 402 179 401 240 C 401 261 408 282 418 299 L 434 297 C 440 296 446 303 444 309 C 453 313 451 322 451 322 C 460 326 456 334 456 334 C 459 335 460 337 461 338 L 467 354 C 468 357 471 359 474 359 C 477 359 479 355 478 352 L 476 345 L 472 335 C 472 335 472 334 473 334 L 479 346 L 482 354 C 483 357 487 359 490 358 C 493 357 495 353 493 350 L 485 332 C 484 331 485 330 486 330 L 497 350 L 499 353 C 500 355 503 356 505 355 C 507 355 509 353 509 351 L 500 332 C 500 331 500 330 501 330 L 512 348 C 513 349 514 351 515 351 C 517 352 520 353 523 351 L 526 340 L 506 307"/>
  </g>
  
  <!-- PI text -->
  <text x="16" y="28" text-anchor="middle" font-family="Arial, sans-serif" font-size="8" font-weight="bold" fill="#f0f5fe">PI</text>
</svg>