<svg xmlns="http://www.w3.org/2000/svg" xmlns:xlink="http://www.w3.org/1999/xlink" width="150" zoomAndPan="magnify" viewBox="0 0 113.04 120.96" height="150" preserveAspectRatio="xMidYMid meet" version="1.0"><defs><g/><clipPath id="5d5e541483"><path d="M 39 53 L 95.21875 53 L 95.21875 88 L 39 88 Z M 39 53 " clip-rule="nonzero"/></clipPath><clipPath id="b32181b463"><path d="M 16.386719 8.894531 L 89 8.894531 L 89 90.699219 L 16.386719 90.699219 Z M 16.386719 8.894531 " clip-rule="nonzero"/></clipPath><clipPath id="e7dbb801b8"><path d="M 0.0390625 1 L 5 1 L 5 7 L 0.0390625 7 Z M 0.0390625 1 " clip-rule="nonzero"/></clipPath><clipPath id="fbd7e903fe"><rect x="0" width="75" y="0" height="8"/></clipPath><clipPath id="2ce4e7fdb7"><path d="M 0.652344 1 L 3 1 L 3 3.722656 L 0.652344 3.722656 Z M 0.652344 1 " clip-rule="nonzero"/></clipPath><clipPath id="36d3626e80"><path d="M 4 1 L 7 1 L 7 3.722656 L 4 3.722656 Z M 4 1 " clip-rule="nonzero"/></clipPath><clipPath id="ce30baf60c"><path d="M 8 1 L 11 1 L 11 3.722656 L 8 3.722656 Z M 8 1 " clip-rule="nonzero"/></clipPath><clipPath id="a239d17010"><path d="M 12 1 L 15 1 L 15 3.722656 L 12 3.722656 Z M 12 1 " clip-rule="nonzero"/></clipPath><clipPath id="5fe79cfc7e"><path d="M 16 1 L 19 1 L 19 3.722656 L 16 3.722656 Z M 16 1 " clip-rule="nonzero"/></clipPath><clipPath id="dcd4c466fb"><path d="M 20 1 L 22 1 L 22 3.722656 L 20 3.722656 Z M 20 1 " clip-rule="nonzero"/></clipPath><clipPath id="907ea39d64"><path d="M 23 3 L 24 3 L 24 3.722656 L 23 3.722656 Z M 23 3 " clip-rule="nonzero"/></clipPath><clipPath id="095c778d41"><path d="M 26 1 L 29 1 L 29 3.722656 L 26 3.722656 Z M 26 1 " clip-rule="nonzero"/></clipPath><clipPath id="06f6e2d097"><path d="M 30 1 L 33 1 L 33 3.722656 L 30 3.722656 Z M 30 1 " clip-rule="nonzero"/></clipPath><clipPath id="d2401f2035"><path d="M 34 1 L 37 1 L 37 3.722656 L 34 3.722656 Z M 34 1 " clip-rule="nonzero"/></clipPath><clipPath id="7e7255b1bf"><path d="M 38 1 L 40 1 L 40 3.722656 L 38 3.722656 Z M 38 1 " clip-rule="nonzero"/></clipPath><clipPath id="04bacbb3ca"><path d="M 42 1 L 44 1 L 44 3.722656 L 42 3.722656 Z M 42 1 " clip-rule="nonzero"/></clipPath><clipPath id="d8b811d1e0"><path d="M 45 1 L 47 1 L 47 3.722656 L 45 3.722656 Z M 45 1 " clip-rule="nonzero"/></clipPath><clipPath id="de28fd64a9"><path d="M 48 1 L 51 1 L 51 3.722656 L 48 3.722656 Z M 48 1 " clip-rule="nonzero"/></clipPath><clipPath id="11ccc7ac5b"><path d="M 52 1 L 55 1 L 55 3.722656 L 52 3.722656 Z M 52 1 " clip-rule="nonzero"/></clipPath><clipPath id="4d74637852"><path d="M 56 1 L 59 1 L 59 3.722656 L 56 3.722656 Z M 56 1 " clip-rule="nonzero"/></clipPath><clipPath id="e143c5e064"><rect x="0" width="62" y="0" height="4"/></clipPath></defs><g clip-path="url(#5d5e541483)"><path fill="#2c794d" d="M 80.15625 73.332031 C 82.621094 69.027344 84.03125 64.039062 84.03125 58.722656 C 84.03125 56.964844 83.875 55.242188 83.582031 53.570312 C 82.386719 60.203125 78.863281 66.027344 73.878906 70.15625 C 71 72.546875 66.707031 72.0625 64.453125 69.074219 L 60.246094 63.496094 C 59.542969 62.566406 58.449219 62.023438 57.289062 62.023438 L 41.25 62.023438 C 41.246094 62.023438 41.242188 62.023438 41.238281 62.023438 C 40.144531 62.03125 39.4375 63.183594 39.929688 64.164062 L 40.566406 65.4375 C 41.753906 67.800781 44.089844 69.371094 46.726562 69.578125 L 47.675781 69.652344 L 51.835938 69.980469 C 53.011719 70.074219 54.074219 70.726562 54.691406 71.734375 L 56.574219 74.816406 L 57.632812 76.546875 L 63.546875 86.222656 C 63.652344 86.394531 63.785156 86.546875 63.9375 86.671875 C 64.367188 87.035156 64.957031 87.183594 65.527344 87.042969 C 65.53125 87.042969 65.535156 87.042969 65.539062 87.042969 C 80.882812 83.253906 92.707031 70.523438 95.160156 54.699219 C 93.007812 62.816406 87.472656 69.5625 80.15625 73.332031 " fill-opacity="1" fill-rule="nonzero"/></g><g clip-path="url(#b32181b463)"><path fill="#025384" d="M 53.558594 72.425781 C 53.164062 71.78125 52.480469 71.363281 51.730469 71.304688 L 46.621094 70.902344 C 43.542969 70.660156 40.765625 68.792969 39.382812 66.03125 L 38.777344 64.828125 C 38.347656 63.972656 38.335938 62.949219 38.8125 62.117188 C 39.300781 61.257812 40.183594 60.726562 41.164062 60.699219 L 41.25 60.695312 L 46.386719 60.695312 C 44.710938 58.054688 41.695312 56.566406 38.570312 56.859375 L 33.238281 57.359375 C 30.949219 57.570312 28.898438 55.996094 28.476562 53.738281 C 28.164062 52.066406 28 50.34375 28 48.578125 C 28 39.640625 32.1875 31.679688 38.707031 26.550781 C 32.25 30.800781 27.222656 37.050781 24.511719 44.421875 C 26.953125 26.667969 42.183594 12.996094 60.605469 12.996094 C 72.011719 12.996094 82.191406 18.234375 88.875 26.4375 C 81.773438 15.921875 69.757812 8.996094 56.121094 8.960938 C 34.292969 8.90625 16.429688 26.691406 16.398438 48.519531 C 16.386719 56.203125 18.566406 63.375 22.339844 69.453125 C 22.421875 69.582031 22.5 69.710938 22.582031 69.839844 L 27.867188 68.941406 C 30.230469 68.542969 32.175781 70.824219 31.371094 73.082031 C 31.351562 73.144531 31.335938 73.179688 31.335938 73.179688 C 34.738281 74.417969 34.164062 77.734375 34.164062 77.734375 C 37.171875 79.105469 35.933594 81.933594 35.933594 81.933594 C 36.996094 82.375 37.371094 83.234375 37.464844 83.515625 C 37.515625 83.660156 37.570312 83.800781 37.625 83.941406 L 39.679688 89.21875 C 40.035156 90.125 41.121094 90.867188 42.09375 90.867188 C 43.324219 90.867188 44.171875 89.640625 43.742188 88.488281 L 42.777344 85.929688 L 41.496094 82.511719 C 41.40625 82.273438 41.566406 82.011719 41.828125 81.992188 C 41.996094 81.980469 42.152344 82.089844 42.21875 82.246094 L 43.90625 86.308594 L 45.152344 89.316406 C 45.582031 90.351562 46.71875 90.945312 47.792969 90.628906 C 49.082031 90.253906 49.726562 88.808594 49.144531 87.601562 C 49.140625 87.601562 49.140625 87.597656 49.140625 87.597656 L 46.054688 81.21875 C 45.921875 80.941406 46.101562 80.621094 46.402344 80.59375 C 46.578125 80.574219 46.746094 80.664062 46.832031 80.820312 L 50.589844 87.824219 L 51.054688 88.695312 C 51.515625 89.550781 52.523438 89.996094 53.445312 89.691406 C 54.160156 89.453125 54.640625 88.851562 54.765625 88.175781 C 54.84375 87.761719 54.789062 87.320312 54.578125 86.910156 L 51.636719 81.210938 C 51.507812 80.960938 51.605469 80.636719 51.867188 80.53125 C 52.097656 80.433594 52.355469 80.53125 52.46875 80.746094 L 55.792969 87.023438 C 56.0625 87.53125 56.460938 87.925781 56.929688 88.1875 C 57.707031 88.617188 58.675781 88.679688 59.539062 88.273438 C 59.703125 88.195312 59.855469 88.101562 60 87.996094 C 61.175781 87.140625 61.546875 85.492188 60.757812 84.199219 L 53.558594 72.425781 " fill-opacity="1" fill-rule="nonzero"/></g><path fill="#2c794d" d="M 24.820312 74.804688 L 28.976562 74.117188 C 30.226562 73.910156 31.070312 72.730469 30.863281 71.480469 C 30.65625 70.234375 29.476562 69.386719 28.226562 69.59375 L 24.070312 70.285156 C 22.820312 70.492188 21.976562 71.671875 22.183594 72.921875 C 22.390625 74.167969 23.570312 75.011719 24.820312 74.804688 " fill-opacity="1" fill-rule="nonzero"/><path fill="#2c794d" d="M 32.984375 75.992188 C 32.777344 74.742188 31.597656 73.898438 30.351562 74.105469 L 24.671875 75.191406 C 23.425781 75.398438 22.582031 76.578125 22.789062 77.824219 C 22.996094 79.074219 24.175781 79.917969 25.421875 79.710938 L 31.101562 78.625 C 32.347656 78.417969 33.191406 77.238281 32.984375 75.992188 " fill-opacity="1" fill-rule="nonzero"/><path fill="#2c794d" d="M 34.902344 80.707031 C 34.695312 79.457031 33.515625 78.613281 32.265625 78.820312 L 28.105469 79.511719 C 26.859375 79.71875 26.015625 80.898438 26.222656 82.148438 C 26.429688 83.394531 27.609375 84.238281 28.855469 84.03125 L 33.015625 83.34375 C 34.265625 83.136719 35.109375 81.957031 34.902344 80.707031 " fill-opacity="1" fill-rule="nonzero"/><path fill="#2c794d" d="M 35.15625 83.242188 L 31.738281 83.789062 C 30.492188 83.996094 29.648438 85.175781 29.855469 86.421875 C 30.0625 87.671875 31.242188 88.515625 32.488281 88.308594 L 35.90625 87.765625 C 37.152344 87.558594 37.996094 86.378906 37.789062 85.128906 C 37.582031 83.878906 36.402344 83.035156 35.15625 83.242188 " fill-opacity="1" fill-rule="nonzero"/><g transform="matrix(1, 0, 0, 1, 19, 92)"><g clip-path="url(#fbd7e903fe)"><g clip-path="url(#e7dbb801b8)"><g fill="#025384" fill-opacity="1"><g transform="translate(0.277543, 6.371201)"><g><path d="M 2.296875 -5.25 C 2.628906 -5.25 2.9375 -5.195312 3.21875 -5.09375 C 3.5 -4.988281 3.742188 -4.84375 3.953125 -4.65625 C 4.160156 -4.46875 4.320312 -4.25 4.4375 -4 C 4.550781 -3.75 4.609375 -3.472656 4.609375 -3.171875 C 4.609375 -2.867188 4.550781 -2.585938 4.4375 -2.328125 C 4.320312 -2.078125 4.160156 -1.859375 3.953125 -1.671875 C 3.742188 -1.492188 3.5 -1.351562 3.21875 -1.25 C 2.9375 -1.15625 2.628906 -1.109375 2.296875 -1.109375 L 1.609375 -1.109375 L 1.609375 -0.15625 C 1.609375 -0.101562 1.59375 -0.0625 1.5625 -0.03125 C 1.53125 -0.0078125 1.488281 0 1.4375 0 L 0.78125 0 C 0.726562 0 0.6875 -0.0078125 0.65625 -0.03125 C 0.632812 -0.0625 0.625 -0.101562 0.625 -0.15625 L 0.625 -5.09375 C 0.625 -5.144531 0.640625 -5.179688 0.671875 -5.203125 C 0.703125 -5.234375 0.738281 -5.25 0.78125 -5.25 L 1.140625 -5.25 C 1.210938 -5.25 1.273438 -5.25 1.328125 -5.25 C 1.390625 -5.25 1.4375 -5.25 1.46875 -5.25 Z M 2.234375 -1.96875 C 2.429688 -1.96875 2.613281 -1.992188 2.78125 -2.046875 C 2.957031 -2.109375 3.109375 -2.191406 3.234375 -2.296875 C 3.359375 -2.410156 3.453125 -2.539062 3.515625 -2.6875 C 3.585938 -2.832031 3.625 -2.992188 3.625 -3.171875 C 3.625 -3.347656 3.585938 -3.507812 3.515625 -3.65625 C 3.453125 -3.8125 3.359375 -3.941406 3.234375 -4.046875 C 3.109375 -4.160156 2.957031 -4.242188 2.78125 -4.296875 C 2.613281 -4.359375 2.429688 -4.390625 2.234375 -4.390625 L 1.609375 -4.390625 L 1.609375 -1.96875 Z M 2.234375 -1.96875 "/></g></g></g></g><g fill="#025384" fill-opacity="1"><g transform="translate(5.889731, 6.371201)"><g><path d="M 1.59375 -5.140625 L 1.59375 -0.109375 C 1.59375 -0.0351562 1.554688 0 1.484375 0 L 0.734375 0 C 0.660156 0 0.625 -0.0351562 0.625 -0.109375 L 0.625 -5.140625 C 0.625 -5.210938 0.660156 -5.25 0.734375 -5.25 L 1.484375 -5.25 C 1.554688 -5.25 1.59375 -5.210938 1.59375 -5.140625 Z M 1.59375 -5.140625 "/></g></g></g><g fill="#025384" fill-opacity="1"><g transform="translate(8.823404, 6.371201)"><g/></g></g><g fill="#025384" fill-opacity="1"><g transform="translate(11.757077, 6.371201)"><g><path d="M 6.25 -0.15625 C 6.257812 -0.101562 6.25 -0.0625 6.21875 -0.03125 C 6.1875 -0.0078125 6.144531 0 6.09375 0 L 5.421875 0 C 5.378906 0 5.34375 -0.0078125 5.3125 -0.03125 C 5.289062 -0.0507812 5.273438 -0.0859375 5.265625 -0.140625 L 5.015625 -2.703125 L 3.46875 -0.0625 C 3.4375 -0.0078125 3.410156 0.0234375 3.390625 0.046875 C 3.367188 0.0664062 3.335938 0.078125 3.296875 0.078125 C 3.242188 0.078125 3.207031 0.0664062 3.1875 0.046875 C 3.175781 0.0234375 3.15625 -0.0078125 3.125 -0.0625 L 1.5625 -2.703125 L 1.3125 -0.140625 C 1.300781 -0.0859375 1.28125 -0.0507812 1.25 -0.03125 C 1.226562 -0.0078125 1.195312 0 1.15625 0 L 0.484375 0 C 0.429688 0 0.390625 -0.0078125 0.359375 -0.03125 C 0.328125 -0.0625 0.316406 -0.101562 0.328125 -0.15625 L 0.84375 -5.203125 C 0.84375 -5.285156 0.882812 -5.328125 0.96875 -5.328125 L 0.984375 -5.328125 C 1.023438 -5.328125 1.050781 -5.316406 1.0625 -5.296875 C 1.082031 -5.273438 1.109375 -5.242188 1.140625 -5.203125 L 3.296875 -1.546875 L 5.453125 -5.203125 C 5.472656 -5.242188 5.488281 -5.273438 5.5 -5.296875 C 5.519531 -5.316406 5.550781 -5.328125 5.59375 -5.328125 L 5.609375 -5.328125 C 5.691406 -5.328125 5.738281 -5.285156 5.75 -5.203125 Z M 6.25 -0.15625 "/></g></g></g><g fill="#025384" fill-opacity="1"><g transform="translate(19.042038, 6.371201)"><g><path d="M 5.078125 -0.171875 C 5.109375 -0.117188 5.113281 -0.078125 5.09375 -0.046875 C 5.070312 -0.015625 5.03125 0 4.96875 0 L 4.234375 0 C 4.191406 0 4.15625 -0.0078125 4.125 -0.03125 C 4.09375 -0.0625 4.066406 -0.09375 4.046875 -0.125 L 3.84375 -0.640625 L 1.421875 -0.640625 L 1.21875 -0.125 C 1.195312 -0.09375 1.171875 -0.0625 1.140625 -0.03125 C 1.117188 -0.0078125 1.082031 0 1.03125 0 L 0.296875 0 C 0.234375 0 0.191406 -0.015625 0.171875 -0.046875 C 0.148438 -0.078125 0.15625 -0.117188 0.1875 -0.171875 L 2.421875 -5.1875 C 2.429688 -5.226562 2.453125 -5.257812 2.484375 -5.28125 C 2.523438 -5.300781 2.566406 -5.3125 2.609375 -5.3125 L 2.65625 -5.3125 C 2.695312 -5.3125 2.734375 -5.300781 2.765625 -5.28125 C 2.796875 -5.257812 2.820312 -5.226562 2.84375 -5.1875 Z M 1.765625 -1.46875 L 3.5 -1.46875 L 2.640625 -3.5625 Z M 1.765625 -1.46875 "/></g></g></g><g fill="#025384" fill-opacity="1"><g transform="translate(25.013665, 6.371201)"><g><path d="M 5.1875 -5.25 C 5.257812 -5.25 5.296875 -5.210938 5.296875 -5.140625 L 5.296875 -0.09375 C 5.296875 -0.0390625 5.28125 -0.00390625 5.25 0.015625 C 5.226562 0.046875 5.203125 0.0625 5.171875 0.0625 L 5.15625 0.0625 C 5.113281 0.0625 5.078125 0.0507812 5.046875 0.03125 C 5.015625 0.0078125 4.984375 -0.0195312 4.953125 -0.0625 L 1.609375 -3.234375 L 1.609375 -0.109375 C 1.609375 -0.0351562 1.566406 0 1.484375 0 L 0.75 0 C 0.664062 0 0.625 -0.0351562 0.625 -0.109375 L 0.625 -5.171875 C 0.625 -5.210938 0.632812 -5.242188 0.65625 -5.265625 C 0.6875 -5.296875 0.71875 -5.3125 0.75 -5.3125 L 0.765625 -5.3125 C 0.804688 -5.3125 0.835938 -5.300781 0.859375 -5.28125 C 0.890625 -5.257812 0.921875 -5.226562 0.953125 -5.1875 L 4.328125 -2.015625 L 4.328125 -5.140625 C 4.328125 -5.210938 4.363281 -5.25 4.4375 -5.25 Z M 5.1875 -5.25 "/></g></g></g><g fill="#025384" fill-opacity="1"><g transform="translate(31.648871, 6.371201)"><g><path d="M 5.078125 -0.171875 C 5.109375 -0.117188 5.113281 -0.078125 5.09375 -0.046875 C 5.070312 -0.015625 5.03125 0 4.96875 0 L 4.234375 0 C 4.191406 0 4.15625 -0.0078125 4.125 -0.03125 C 4.09375 -0.0625 4.066406 -0.09375 4.046875 -0.125 L 3.84375 -0.640625 L 1.421875 -0.640625 L 1.21875 -0.125 C 1.195312 -0.09375 1.171875 -0.0625 1.140625 -0.03125 C 1.117188 -0.0078125 1.082031 0 1.03125 0 L 0.296875 0 C 0.234375 0 0.191406 -0.015625 0.171875 -0.046875 C 0.148438 -0.078125 0.15625 -0.117188 0.1875 -0.171875 L 2.421875 -5.1875 C 2.429688 -5.226562 2.453125 -5.257812 2.484375 -5.28125 C 2.523438 -5.300781 2.566406 -5.3125 2.609375 -5.3125 L 2.65625 -5.3125 C 2.695312 -5.3125 2.734375 -5.300781 2.765625 -5.28125 C 2.796875 -5.257812 2.820312 -5.226562 2.84375 -5.1875 Z M 1.765625 -1.46875 L 3.5 -1.46875 L 2.640625 -3.5625 Z M 1.765625 -1.46875 "/></g></g></g><g fill="#025384" fill-opacity="1"><g transform="translate(37.620498, 6.371201)"><g><path d="M 4.75 -2.671875 C 4.820312 -2.671875 4.859375 -2.628906 4.859375 -2.546875 L 4.859375 -0.578125 C 4.859375 -0.546875 4.847656 -0.515625 4.828125 -0.484375 C 4.816406 -0.453125 4.800781 -0.425781 4.78125 -0.40625 C 4.675781 -0.34375 4.554688 -0.28125 4.421875 -0.21875 C 4.285156 -0.15625 4.140625 -0.101562 3.984375 -0.0625 C 3.835938 -0.0195312 3.679688 0.0078125 3.515625 0.03125 C 3.359375 0.0625 3.207031 0.078125 3.0625 0.078125 C 2.757812 0.078125 2.46875 0.0351562 2.1875 -0.046875 C 1.90625 -0.140625 1.648438 -0.265625 1.421875 -0.421875 C 1.191406 -0.585938 0.992188 -0.78125 0.828125 -1 C 0.660156 -1.226562 0.53125 -1.476562 0.4375 -1.75 C 0.351562 -2.019531 0.3125 -2.3125 0.3125 -2.625 C 0.3125 -2.925781 0.351562 -3.210938 0.4375 -3.484375 C 0.53125 -3.765625 0.660156 -4.015625 0.828125 -4.234375 C 0.992188 -4.453125 1.191406 -4.644531 1.421875 -4.8125 C 1.648438 -4.976562 1.898438 -5.101562 2.171875 -5.1875 C 2.453125 -5.28125 2.75 -5.328125 3.0625 -5.328125 C 3.238281 -5.328125 3.421875 -5.304688 3.609375 -5.265625 C 3.804688 -5.234375 3.992188 -5.175781 4.171875 -5.09375 C 4.359375 -5.007812 4.523438 -4.910156 4.671875 -4.796875 C 4.703125 -4.765625 4.71875 -4.726562 4.71875 -4.6875 C 4.726562 -4.644531 4.722656 -4.609375 4.703125 -4.578125 L 4.328125 -4 C 4.296875 -3.96875 4.257812 -3.945312 4.21875 -3.9375 C 4.1875 -3.9375 4.148438 -3.953125 4.109375 -3.984375 C 4.003906 -4.078125 3.890625 -4.148438 3.765625 -4.203125 C 3.648438 -4.253906 3.53125 -4.289062 3.40625 -4.3125 C 3.28125 -4.34375 3.164062 -4.359375 3.0625 -4.359375 C 2.8125 -4.359375 2.578125 -4.3125 2.359375 -4.21875 C 2.148438 -4.132812 1.960938 -4.015625 1.796875 -3.859375 C 1.640625 -3.703125 1.515625 -3.515625 1.421875 -3.296875 C 1.335938 -3.085938 1.296875 -2.863281 1.296875 -2.625 C 1.296875 -2.375 1.335938 -2.140625 1.421875 -1.921875 C 1.503906 -1.710938 1.625 -1.523438 1.78125 -1.359375 C 1.945312 -1.203125 2.132812 -1.078125 2.34375 -0.984375 C 2.5625 -0.890625 2.800781 -0.84375 3.0625 -0.84375 C 3.15625 -0.84375 3.253906 -0.851562 3.359375 -0.875 C 3.460938 -0.90625 3.566406 -0.9375 3.671875 -0.96875 C 3.773438 -1.007812 3.863281 -1.054688 3.9375 -1.109375 L 3.9375 -1.859375 L 3.03125 -1.859375 C 2.957031 -1.859375 2.921875 -1.894531 2.921875 -1.96875 L 2.921875 -2.546875 C 2.921875 -2.628906 2.957031 -2.671875 3.03125 -2.671875 Z M 4.75 -2.671875 "/></g></g></g><g fill="#025384" fill-opacity="1"><g transform="translate(43.647422, 6.371201)"><g><path d="M 4.421875 -0.921875 C 4.492188 -0.921875 4.546875 -0.90625 4.578125 -0.875 C 4.617188 -0.84375 4.640625 -0.796875 4.640625 -0.734375 L 4.640625 -0.15625 C 4.640625 -0.101562 4.625 -0.0625 4.59375 -0.03125 C 4.5625 -0.0078125 4.523438 0 4.484375 0 L 0.78125 0 C 0.675781 0 0.625 -0.0507812 0.625 -0.15625 L 0.625 -5.09375 C 0.625 -5.195312 0.675781 -5.25 0.78125 -5.25 L 4.40625 -5.25 C 4.457031 -5.25 4.492188 -5.234375 4.515625 -5.203125 C 4.546875 -5.179688 4.5625 -5.144531 4.5625 -5.09375 L 4.5625 -4.484375 C 4.5625 -4.378906 4.507812 -4.328125 4.40625 -4.328125 L 1.609375 -4.328125 L 1.609375 -2.875 L 3.796875 -2.875 C 3.859375 -2.875 3.90625 -2.859375 3.9375 -2.828125 C 3.96875 -2.804688 3.984375 -2.769531 3.984375 -2.71875 L 3.984375 -2.140625 C 3.984375 -2.085938 3.96875 -2.046875 3.9375 -2.015625 C 3.90625 -1.992188 3.859375 -1.984375 3.796875 -1.984375 L 1.609375 -1.984375 L 1.609375 -0.921875 Z M 4.421875 -0.921875 "/></g></g></g><g fill="#025384" fill-opacity="1"><g transform="translate(49.346015, 6.371201)"><g><path d="M 6.25 -0.15625 C 6.257812 -0.101562 6.25 -0.0625 6.21875 -0.03125 C 6.1875 -0.0078125 6.144531 0 6.09375 0 L 5.421875 0 C 5.378906 0 5.34375 -0.0078125 5.3125 -0.03125 C 5.289062 -0.0507812 5.273438 -0.0859375 5.265625 -0.140625 L 5.015625 -2.703125 L 3.46875 -0.0625 C 3.4375 -0.0078125 3.410156 0.0234375 3.390625 0.046875 C 3.367188 0.0664062 3.335938 0.078125 3.296875 0.078125 C 3.242188 0.078125 3.207031 0.0664062 3.1875 0.046875 C 3.175781 0.0234375 3.15625 -0.0078125 3.125 -0.0625 L 1.5625 -2.703125 L 1.3125 -0.140625 C 1.300781 -0.0859375 1.28125 -0.0507812 1.25 -0.03125 C 1.226562 -0.0078125 1.195312 0 1.15625 0 L 0.484375 0 C 0.429688 0 0.390625 -0.0078125 0.359375 -0.03125 C 0.328125 -0.0625 0.316406 -0.101562 0.328125 -0.15625 L 0.84375 -5.203125 C 0.84375 -5.285156 0.882812 -5.328125 0.96875 -5.328125 L 0.984375 -5.328125 C 1.023438 -5.328125 1.050781 -5.316406 1.0625 -5.296875 C 1.082031 -5.273438 1.109375 -5.242188 1.140625 -5.203125 L 3.296875 -1.546875 L 5.453125 -5.203125 C 5.472656 -5.242188 5.488281 -5.273438 5.5 -5.296875 C 5.519531 -5.316406 5.550781 -5.328125 5.59375 -5.328125 L 5.609375 -5.328125 C 5.691406 -5.328125 5.738281 -5.285156 5.75 -5.203125 Z M 6.25 -0.15625 "/></g></g></g><g fill="#025384" fill-opacity="1"><g transform="translate(56.630974, 6.371201)"><g><path d="M 4.421875 -0.921875 C 4.492188 -0.921875 4.546875 -0.90625 4.578125 -0.875 C 4.617188 -0.84375 4.640625 -0.796875 4.640625 -0.734375 L 4.640625 -0.15625 C 4.640625 -0.101562 4.625 -0.0625 4.59375 -0.03125 C 4.5625 -0.0078125 4.523438 0 4.484375 0 L 0.78125 0 C 0.675781 0 0.625 -0.0507812 0.625 -0.15625 L 0.625 -5.09375 C 0.625 -5.195312 0.675781 -5.25 0.78125 -5.25 L 4.40625 -5.25 C 4.457031 -5.25 4.492188 -5.234375 4.515625 -5.203125 C 4.546875 -5.179688 4.5625 -5.144531 4.5625 -5.09375 L 4.5625 -4.484375 C 4.5625 -4.378906 4.507812 -4.328125 4.40625 -4.328125 L 1.609375 -4.328125 L 1.609375 -2.875 L 3.796875 -2.875 C 3.859375 -2.875 3.90625 -2.859375 3.9375 -2.828125 C 3.96875 -2.804688 3.984375 -2.769531 3.984375 -2.71875 L 3.984375 -2.140625 C 3.984375 -2.085938 3.96875 -2.046875 3.9375 -2.015625 C 3.90625 -1.992188 3.859375 -1.984375 3.796875 -1.984375 L 1.609375 -1.984375 L 1.609375 -0.921875 Z M 4.421875 -0.921875 "/></g></g></g><g fill="#025384" fill-opacity="1"><g transform="translate(62.32956, 6.371201)"><g><path d="M 5.1875 -5.25 C 5.257812 -5.25 5.296875 -5.210938 5.296875 -5.140625 L 5.296875 -0.09375 C 5.296875 -0.0390625 5.28125 -0.00390625 5.25 0.015625 C 5.226562 0.046875 5.203125 0.0625 5.171875 0.0625 L 5.15625 0.0625 C 5.113281 0.0625 5.078125 0.0507812 5.046875 0.03125 C 5.015625 0.0078125 4.984375 -0.0195312 4.953125 -0.0625 L 1.609375 -3.234375 L 1.609375 -0.109375 C 1.609375 -0.0351562 1.566406 0 1.484375 0 L 0.75 0 C 0.664062 0 0.625 -0.0351562 0.625 -0.109375 L 0.625 -5.171875 C 0.625 -5.210938 0.632812 -5.242188 0.65625 -5.265625 C 0.6875 -5.296875 0.71875 -5.3125 0.75 -5.3125 L 0.765625 -5.3125 C 0.804688 -5.3125 0.835938 -5.300781 0.859375 -5.28125 C 0.890625 -5.257812 0.921875 -5.226562 0.953125 -5.1875 L 4.328125 -2.015625 L 4.328125 -5.140625 C 4.328125 -5.210938 4.363281 -5.25 4.4375 -5.25 Z M 5.1875 -5.25 "/></g></g></g><g fill="#025384" fill-opacity="1"><g transform="translate(68.96477, 6.371201)"><g><path d="M 0.203125 -4.546875 L 0.203125 -5.09375 C 0.203125 -5.195312 0.253906 -5.25 0.359375 -5.25 L 3.953125 -5.25 C 3.992188 -5.25 4.03125 -5.234375 4.0625 -5.203125 C 4.09375 -5.179688 4.109375 -5.144531 4.109375 -5.09375 L 4.109375 -4.546875 C 4.109375 -4.441406 4.054688 -4.390625 3.953125 -4.390625 L 2.640625 -4.390625 L 2.640625 -0.15625 C 2.640625 -0.0507812 2.585938 0 2.484375 0 L 1.8125 0 C 1.707031 0 1.65625 -0.0507812 1.65625 -0.15625 L 1.65625 -4.390625 L 0.359375 -4.390625 C 0.304688 -4.390625 0.265625 -4.398438 0.234375 -4.421875 C 0.210938 -4.453125 0.203125 -4.492188 0.203125 -4.546875 Z M 0.203125 -4.546875 "/></g></g></g></g></g><g transform="matrix(1, 0, 0, 1, 26, 101)"><g clip-path="url(#e143c5e064)"><g clip-path="url(#2ce4e7fdb7)"><g fill="#0a6036" fill-opacity="1"><g transform="translate(0.767466, 3.009267)"><g><path d="M 1.796875 -0.0625 C 1.804688 -0.0390625 1.804688 -0.0234375 1.796875 -0.015625 C 1.785156 -0.00390625 1.769531 0 1.75 0 L 1.5 0 C 1.476562 0 1.460938 -0.00390625 1.453125 -0.015625 C 1.441406 -0.0234375 1.4375 -0.0351562 1.4375 -0.046875 L 1.359375 -0.21875 L 0.5 -0.21875 L 0.4375 -0.046875 C 0.425781 -0.0351562 0.414062 -0.0234375 0.40625 -0.015625 C 0.394531 -0.00390625 0.378906 0 0.359375 0 L 0.109375 0 C 0.0859375 0 0.0703125 -0.00390625 0.0625 -0.015625 C 0.0507812 -0.0234375 0.0507812 -0.0390625 0.0625 -0.0625 L 0.859375 -1.828125 C 0.859375 -1.847656 0.863281 -1.859375 0.875 -1.859375 C 0.894531 -1.867188 0.910156 -1.875 0.921875 -1.875 L 0.9375 -1.875 C 0.945312 -1.875 0.957031 -1.867188 0.96875 -1.859375 C 0.988281 -1.859375 1 -1.847656 1 -1.828125 Z M 0.625 -0.515625 L 1.234375 -0.515625 L 0.9375 -1.265625 Z M 0.625 -0.515625 "/></g></g></g></g><g clip-path="url(#36d3626e80)"><g fill="#0a6036" fill-opacity="1"><g transform="translate(4.635541, 3.009267)"><g><path d="M 1.671875 -0.9375 C 1.703125 -0.9375 1.71875 -0.925781 1.71875 -0.90625 L 1.71875 -0.203125 C 1.71875 -0.191406 1.710938 -0.179688 1.703125 -0.171875 C 1.703125 -0.160156 1.695312 -0.148438 1.6875 -0.140625 C 1.65625 -0.117188 1.613281 -0.0976562 1.5625 -0.078125 C 1.507812 -0.0546875 1.457031 -0.0351562 1.40625 -0.015625 C 1.351562 -0.00390625 1.296875 0.00390625 1.234375 0.015625 C 1.179688 0.0234375 1.128906 0.03125 1.078125 0.03125 C 0.972656 0.03125 0.867188 0.015625 0.765625 -0.015625 C 0.671875 -0.046875 0.582031 -0.0859375 0.5 -0.140625 C 0.425781 -0.203125 0.359375 -0.269531 0.296875 -0.34375 C 0.234375 -0.425781 0.1875 -0.515625 0.15625 -0.609375 C 0.125 -0.710938 0.109375 -0.816406 0.109375 -0.921875 C 0.109375 -1.035156 0.125 -1.140625 0.15625 -1.234375 C 0.1875 -1.328125 0.234375 -1.410156 0.296875 -1.484375 C 0.359375 -1.566406 0.425781 -1.632812 0.5 -1.6875 C 0.582031 -1.75 0.671875 -1.796875 0.765625 -1.828125 C 0.867188 -1.859375 0.972656 -1.875 1.078125 -1.875 C 1.140625 -1.875 1.203125 -1.867188 1.265625 -1.859375 C 1.335938 -1.847656 1.40625 -1.828125 1.46875 -1.796875 C 1.539062 -1.765625 1.601562 -1.726562 1.65625 -1.6875 C 1.664062 -1.675781 1.671875 -1.664062 1.671875 -1.65625 C 1.671875 -1.644531 1.664062 -1.632812 1.65625 -1.625 L 1.53125 -1.421875 C 1.519531 -1.398438 1.503906 -1.390625 1.484375 -1.390625 C 1.472656 -1.390625 1.460938 -1.394531 1.453125 -1.40625 C 1.421875 -1.4375 1.378906 -1.460938 1.328125 -1.484375 C 1.285156 -1.503906 1.242188 -1.519531 1.203125 -1.53125 C 1.160156 -1.539062 1.117188 -1.546875 1.078125 -1.546875 C 0.992188 -1.546875 0.910156 -1.53125 0.828125 -1.5 C 0.753906 -1.46875 0.6875 -1.421875 0.625 -1.359375 C 0.570312 -1.304688 0.53125 -1.242188 0.5 -1.171875 C 0.46875 -1.097656 0.453125 -1.015625 0.453125 -0.921875 C 0.453125 -0.835938 0.46875 -0.753906 0.5 -0.671875 C 0.53125 -0.597656 0.570312 -0.53125 0.625 -0.46875 C 0.6875 -0.414062 0.753906 -0.375 0.828125 -0.34375 C 0.898438 -0.3125 0.984375 -0.296875 1.078125 -0.296875 C 1.109375 -0.296875 1.144531 -0.300781 1.1875 -0.3125 C 1.226562 -0.320312 1.265625 -0.332031 1.296875 -0.34375 C 1.335938 -0.351562 1.367188 -0.367188 1.390625 -0.390625 L 1.390625 -0.65625 L 1.078125 -0.65625 C 1.046875 -0.65625 1.03125 -0.671875 1.03125 -0.703125 L 1.03125 -0.90625 C 1.03125 -0.925781 1.046875 -0.9375 1.078125 -0.9375 Z M 1.671875 -0.9375 "/></g></g></g></g><g clip-path="url(#ce30baf60c)"><g fill="#0a6036" fill-opacity="1"><g transform="translate(8.523191, 3.009267)"><g><path d="M 1.5625 -0.328125 C 1.582031 -0.328125 1.597656 -0.320312 1.609375 -0.3125 C 1.628906 -0.300781 1.640625 -0.285156 1.640625 -0.265625 L 1.640625 -0.046875 C 1.640625 -0.0351562 1.632812 -0.0234375 1.625 -0.015625 C 1.613281 -0.00390625 1.597656 0 1.578125 0 L 0.28125 0 C 0.238281 0 0.21875 -0.015625 0.21875 -0.046875 L 0.21875 -1.796875 C 0.21875 -1.835938 0.238281 -1.859375 0.28125 -1.859375 L 1.5625 -1.859375 C 1.570312 -1.859375 1.582031 -1.851562 1.59375 -1.84375 C 1.601562 -1.832031 1.609375 -1.816406 1.609375 -1.796875 L 1.609375 -1.578125 C 1.609375 -1.546875 1.59375 -1.53125 1.5625 -1.53125 L 0.5625 -1.53125 L 0.5625 -1.015625 L 1.34375 -1.015625 C 1.363281 -1.015625 1.378906 -1.007812 1.390625 -1 C 1.398438 -0.988281 1.40625 -0.972656 1.40625 -0.953125 L 1.40625 -0.75 C 1.40625 -0.738281 1.398438 -0.726562 1.390625 -0.71875 C 1.378906 -0.707031 1.363281 -0.703125 1.34375 -0.703125 L 0.5625 -0.703125 L 0.5625 -0.328125 Z M 1.5625 -0.328125 "/></g></g></g></g><g clip-path="url(#a239d17010)"><g fill="#0a6036" fill-opacity="1"><g transform="translate(12.294607, 3.009267)"><g><path d="M 1.828125 -1.859375 C 1.859375 -1.859375 1.875 -1.84375 1.875 -1.8125 L 1.875 -0.03125 C 1.875 -0.0078125 1.867188 0.00390625 1.859375 0.015625 C 1.847656 0.0234375 1.835938 0.03125 1.828125 0.03125 C 1.804688 0.03125 1.789062 0.0234375 1.78125 0.015625 C 1.769531 0.00390625 1.757812 -0.00390625 1.75 -0.015625 L 0.5625 -1.140625 L 0.5625 -0.046875 C 0.5625 -0.015625 0.550781 0 0.53125 0 L 0.265625 0 C 0.234375 0 0.21875 -0.015625 0.21875 -0.046875 L 0.21875 -1.828125 C 0.21875 -1.835938 0.222656 -1.847656 0.234375 -1.859375 C 0.242188 -1.867188 0.253906 -1.875 0.265625 -1.875 C 0.285156 -1.875 0.296875 -1.867188 0.296875 -1.859375 C 0.304688 -1.859375 0.320312 -1.847656 0.34375 -1.828125 L 1.53125 -0.703125 L 1.53125 -1.8125 C 1.53125 -1.84375 1.539062 -1.859375 1.5625 -1.859375 Z M 1.828125 -1.859375 "/></g></g></g></g><g clip-path="url(#5fe79cfc7e)"><g fill="#0a6036" fill-opacity="1"><g transform="translate(16.397599, 3.009267)"><g><path d="M 1.453125 -0.453125 C 1.460938 -0.460938 1.472656 -0.460938 1.484375 -0.453125 C 1.503906 -0.453125 1.519531 -0.445312 1.53125 -0.4375 L 1.671875 -0.234375 C 1.671875 -0.222656 1.664062 -0.207031 1.65625 -0.1875 C 1.65625 -0.175781 1.648438 -0.164062 1.640625 -0.15625 C 1.585938 -0.125 1.53125 -0.09375 1.46875 -0.0625 C 1.40625 -0.03125 1.335938 -0.0078125 1.265625 0 C 1.203125 0.0195312 1.140625 0.03125 1.078125 0.03125 C 0.972656 0.03125 0.867188 0.015625 0.765625 -0.015625 C 0.671875 -0.046875 0.582031 -0.0859375 0.5 -0.140625 C 0.425781 -0.203125 0.359375 -0.269531 0.296875 -0.34375 C 0.234375 -0.425781 0.1875 -0.515625 0.15625 -0.609375 C 0.125 -0.710938 0.109375 -0.816406 0.109375 -0.921875 C 0.109375 -1.035156 0.125 -1.140625 0.15625 -1.234375 C 0.1875 -1.328125 0.234375 -1.410156 0.296875 -1.484375 C 0.359375 -1.566406 0.425781 -1.632812 0.5 -1.6875 C 0.582031 -1.75 0.671875 -1.796875 0.765625 -1.828125 C 0.867188 -1.859375 0.972656 -1.875 1.078125 -1.875 C 1.140625 -1.875 1.203125 -1.867188 1.265625 -1.859375 C 1.335938 -1.847656 1.40625 -1.828125 1.46875 -1.796875 C 1.539062 -1.765625 1.601562 -1.726562 1.65625 -1.6875 C 1.664062 -1.675781 1.671875 -1.660156 1.671875 -1.640625 C 1.671875 -1.628906 1.671875 -1.625 1.671875 -1.625 L 1.53125 -1.40625 C 1.519531 -1.394531 1.503906 -1.390625 1.484375 -1.390625 C 1.472656 -1.390625 1.460938 -1.394531 1.453125 -1.40625 C 1.398438 -1.445312 1.335938 -1.476562 1.265625 -1.5 C 1.203125 -1.53125 1.140625 -1.546875 1.078125 -1.546875 C 0.992188 -1.546875 0.910156 -1.53125 0.828125 -1.5 C 0.753906 -1.46875 0.6875 -1.421875 0.625 -1.359375 C 0.570312 -1.304688 0.53125 -1.238281 0.5 -1.15625 C 0.46875 -1.082031 0.453125 -1.003906 0.453125 -0.921875 C 0.453125 -0.835938 0.46875 -0.757812 0.5 -0.6875 C 0.53125 -0.613281 0.570312 -0.546875 0.625 -0.484375 C 0.6875 -0.429688 0.753906 -0.390625 0.828125 -0.359375 C 0.910156 -0.328125 0.992188 -0.3125 1.078125 -0.3125 C 1.140625 -0.3125 1.203125 -0.320312 1.265625 -0.34375 C 1.335938 -0.375 1.398438 -0.410156 1.453125 -0.453125 Z M 1.453125 -0.453125 "/></g></g></g></g><g clip-path="url(#dcd4c466fb)"><g fill="#0a6036" fill-opacity="1"><g transform="translate(20.204497, 3.009267)"><g><path d="M 1.5625 -1.859375 C 1.582031 -1.859375 1.59375 -1.851562 1.59375 -1.84375 C 1.601562 -1.832031 1.601562 -1.816406 1.59375 -1.796875 L 0.984375 -0.734375 L 0.984375 -0.046875 C 0.984375 -0.015625 0.96875 0 0.9375 0 L 0.703125 0 C 0.660156 0 0.640625 -0.015625 0.640625 -0.046875 L 0.640625 -0.734375 L 0.03125 -1.796875 C 0.0195312 -1.816406 0.0195312 -1.832031 0.03125 -1.84375 C 0.0390625 -1.851562 0.0546875 -1.859375 0.078125 -1.859375 L 0.359375 -1.859375 C 0.367188 -1.859375 0.378906 -1.851562 0.390625 -1.84375 C 0.398438 -1.832031 0.410156 -1.820312 0.421875 -1.8125 L 0.8125 -1.078125 L 1.21875 -1.8125 C 1.226562 -1.84375 1.25 -1.859375 1.28125 -1.859375 Z M 1.5625 -1.859375 "/></g></g></g></g><g clip-path="url(#907ea39d64)"><g fill="#0a6036" fill-opacity="1"><g transform="translate(23.844994, 3.009267)"><g/></g></g></g><g clip-path="url(#095c778d41)"><g fill="#0a6036" fill-opacity="1"><g transform="translate(26.637583, 3.009267)"><g><path d="M 0.8125 -1.859375 C 0.925781 -1.859375 1.03125 -1.835938 1.125 -1.796875 C 1.226562 -1.765625 1.316406 -1.710938 1.390625 -1.640625 C 1.460938 -1.578125 1.519531 -1.5 1.5625 -1.40625 C 1.601562 -1.320312 1.625 -1.226562 1.625 -1.125 C 1.625 -1.007812 1.601562 -0.90625 1.5625 -0.8125 C 1.519531 -0.726562 1.460938 -0.65625 1.390625 -0.59375 C 1.316406 -0.53125 1.226562 -0.476562 1.125 -0.4375 C 1.03125 -0.40625 0.925781 -0.390625 0.8125 -0.390625 L 0.5625 -0.390625 L 0.5625 -0.046875 C 0.5625 -0.0351562 0.554688 -0.0234375 0.546875 -0.015625 C 0.535156 -0.00390625 0.523438 0 0.515625 0 L 0.28125 0 C 0.257812 0 0.242188 -0.00390625 0.234375 -0.015625 C 0.222656 -0.0234375 0.21875 -0.0351562 0.21875 -0.046875 L 0.21875 -1.796875 C 0.21875 -1.816406 0.222656 -1.832031 0.234375 -1.84375 C 0.242188 -1.851562 0.257812 -1.859375 0.28125 -1.859375 L 0.40625 -1.859375 C 0.425781 -1.859375 0.445312 -1.859375 0.46875 -1.859375 C 0.488281 -1.859375 0.503906 -1.859375 0.515625 -1.859375 Z M 0.78125 -0.6875 C 0.851562 -0.6875 0.921875 -0.695312 0.984375 -0.71875 C 1.046875 -0.738281 1.097656 -0.769531 1.140625 -0.8125 C 1.179688 -0.851562 1.210938 -0.898438 1.234375 -0.953125 C 1.265625 -1.003906 1.28125 -1.0625 1.28125 -1.125 C 1.28125 -1.1875 1.265625 -1.242188 1.234375 -1.296875 C 1.210938 -1.347656 1.179688 -1.390625 1.140625 -1.421875 C 1.097656 -1.460938 1.046875 -1.492188 0.984375 -1.515625 C 0.921875 -1.535156 0.851562 -1.546875 0.78125 -1.546875 L 0.5625 -1.546875 L 0.5625 -0.6875 Z M 0.78125 -0.6875 "/></g></g></g></g><g clip-path="url(#06f6e2d097)"><g fill="#0a6036" fill-opacity="1"><g transform="translate(30.37841, 3.009267)"><g><path d="M 1.5625 -0.328125 C 1.582031 -0.328125 1.597656 -0.320312 1.609375 -0.3125 C 1.628906 -0.300781 1.640625 -0.285156 1.640625 -0.265625 L 1.640625 -0.046875 C 1.640625 -0.0351562 1.632812 -0.0234375 1.625 -0.015625 C 1.613281 -0.00390625 1.597656 0 1.578125 0 L 0.28125 0 C 0.238281 0 0.21875 -0.015625 0.21875 -0.046875 L 0.21875 -1.796875 C 0.21875 -1.835938 0.238281 -1.859375 0.28125 -1.859375 L 1.5625 -1.859375 C 1.570312 -1.859375 1.582031 -1.851562 1.59375 -1.84375 C 1.601562 -1.832031 1.609375 -1.816406 1.609375 -1.796875 L 1.609375 -1.578125 C 1.609375 -1.546875 1.59375 -1.53125 1.5625 -1.53125 L 0.5625 -1.53125 L 0.5625 -1.015625 L 1.34375 -1.015625 C 1.363281 -1.015625 1.378906 -1.007812 1.390625 -1 C 1.398438 -0.988281 1.40625 -0.972656 1.40625 -0.953125 L 1.40625 -0.75 C 1.40625 -0.738281 1.398438 -0.726562 1.390625 -0.71875 C 1.378906 -0.707031 1.363281 -0.703125 1.34375 -0.703125 L 0.5625 -0.703125 L 0.5625 -0.328125 Z M 1.5625 -0.328125 "/></g></g></g></g><g clip-path="url(#d2401f2035)"><g fill="#0a6036" fill-opacity="1"><g transform="translate(34.149825, 3.009267)"><g><path d="M 1.84375 -0.0625 C 1.851562 -0.0390625 1.851562 -0.0234375 1.84375 -0.015625 C 1.84375 -0.00390625 1.835938 0 1.828125 0 L 1.53125 0 C 1.507812 0 1.488281 -0.0078125 1.46875 -0.03125 L 0.890625 -1.03125 L 0.5625 -0.71875 L 0.5625 -0.046875 C 0.5625 -0.015625 0.550781 0 0.53125 0 L 0.265625 0 C 0.234375 0 0.21875 -0.015625 0.21875 -0.046875 L 0.21875 -1.8125 C 0.21875 -1.84375 0.234375 -1.859375 0.265625 -1.859375 L 0.53125 -1.859375 C 0.550781 -1.859375 0.5625 -1.84375 0.5625 -1.8125 L 0.5625 -1.15625 L 1.25 -1.8125 C 1.269531 -1.832031 1.285156 -1.84375 1.296875 -1.84375 C 1.304688 -1.851562 1.320312 -1.859375 1.34375 -1.859375 L 1.640625 -1.859375 C 1.660156 -1.859375 1.671875 -1.847656 1.671875 -1.828125 C 1.679688 -1.816406 1.675781 -1.800781 1.65625 -1.78125 L 1.140625 -1.265625 Z M 1.84375 -0.0625 "/></g></g></g></g><g clip-path="url(#7e7255b1bf)"><g fill="#0a6036" fill-opacity="1"><g transform="translate(38.057053, 3.009267)"><g><path d="M 1.5625 -0.328125 C 1.582031 -0.328125 1.597656 -0.320312 1.609375 -0.3125 C 1.628906 -0.300781 1.640625 -0.285156 1.640625 -0.265625 L 1.640625 -0.046875 C 1.640625 -0.0351562 1.632812 -0.0234375 1.625 -0.015625 C 1.613281 -0.00390625 1.597656 0 1.578125 0 L 0.28125 0 C 0.238281 0 0.21875 -0.015625 0.21875 -0.046875 L 0.21875 -1.796875 C 0.21875 -1.835938 0.238281 -1.859375 0.28125 -1.859375 L 1.5625 -1.859375 C 1.570312 -1.859375 1.582031 -1.851562 1.59375 -1.84375 C 1.601562 -1.832031 1.609375 -1.816406 1.609375 -1.796875 L 1.609375 -1.578125 C 1.609375 -1.546875 1.59375 -1.53125 1.5625 -1.53125 L 0.5625 -1.53125 L 0.5625 -1.015625 L 1.34375 -1.015625 C 1.363281 -1.015625 1.378906 -1.007812 1.390625 -1 C 1.398438 -0.988281 1.40625 -0.972656 1.40625 -0.953125 L 1.40625 -0.75 C 1.40625 -0.738281 1.398438 -0.726562 1.390625 -0.71875 C 1.378906 -0.707031 1.363281 -0.703125 1.34375 -0.703125 L 0.5625 -0.703125 L 0.5625 -0.328125 Z M 1.5625 -0.328125 "/></g></g></g></g><g clip-path="url(#04bacbb3ca)"><g fill="#0a6036" fill-opacity="1"><g transform="translate(41.828468, 3.009267)"><g><path d="M 1.390625 -0.546875 L 1.640625 -0.0625 C 1.640625 -0.0390625 1.632812 -0.0234375 1.625 -0.015625 C 1.625 -0.00390625 1.613281 0 1.59375 0 L 1.328125 0 C 1.316406 0 1.304688 -0.00390625 1.296875 -0.015625 C 1.285156 -0.0234375 1.273438 -0.0351562 1.265625 -0.046875 L 1.078125 -0.4375 C 1.054688 -0.4375 1.035156 -0.429688 1.015625 -0.421875 C 0.992188 -0.421875 0.972656 -0.421875 0.953125 -0.421875 L 0.5625 -0.421875 L 0.5625 -0.046875 C 0.5625 -0.0351562 0.554688 -0.0234375 0.546875 -0.015625 C 0.535156 -0.00390625 0.523438 0 0.515625 0 L 0.28125 0 C 0.257812 0 0.242188 -0.00390625 0.234375 -0.015625 C 0.222656 -0.0234375 0.21875 -0.0351562 0.21875 -0.046875 L 0.21875 -1.796875 C 0.21875 -1.816406 0.222656 -1.832031 0.234375 -1.84375 C 0.242188 -1.851562 0.257812 -1.859375 0.28125 -1.859375 L 0.34375 -1.859375 C 0.375 -1.859375 0.40625 -1.859375 0.4375 -1.859375 C 0.476562 -1.859375 0.503906 -1.859375 0.515625 -1.859375 L 0.953125 -1.859375 C 1.054688 -1.859375 1.15625 -1.835938 1.25 -1.796875 C 1.34375 -1.765625 1.421875 -1.71875 1.484375 -1.65625 C 1.554688 -1.59375 1.609375 -1.515625 1.640625 -1.421875 C 1.679688 -1.335938 1.703125 -1.242188 1.703125 -1.140625 C 1.703125 -1.015625 1.671875 -0.898438 1.609375 -0.796875 C 1.554688 -0.691406 1.484375 -0.609375 1.390625 -0.546875 Z M 0.921875 -0.71875 C 1.003906 -0.71875 1.078125 -0.734375 1.140625 -0.765625 C 1.210938 -0.804688 1.265625 -0.859375 1.296875 -0.921875 C 1.335938 -0.984375 1.359375 -1.054688 1.359375 -1.140625 C 1.359375 -1.203125 1.347656 -1.253906 1.328125 -1.296875 C 1.304688 -1.347656 1.273438 -1.390625 1.234375 -1.421875 C 1.191406 -1.460938 1.144531 -1.492188 1.09375 -1.515625 C 1.039062 -1.535156 0.984375 -1.546875 0.921875 -1.546875 L 0.5625 -1.546875 L 0.5625 -0.71875 Z M 0.921875 -0.71875 "/></g></g></g></g><g clip-path="url(#d8b811d1e0)"><g fill="#0a6036" fill-opacity="1"><g transform="translate(45.689201, 3.009267)"><g><path d="M 0.71875 -0.53125 L 0.71875 -1.8125 C 0.71875 -1.84375 0.734375 -1.859375 0.765625 -1.859375 L 1.015625 -1.859375 C 1.046875 -1.859375 1.0625 -1.84375 1.0625 -1.8125 L 1.0625 -0.53125 C 1.0625 -0.414062 1.035156 -0.316406 0.984375 -0.234375 C 0.941406 -0.148438 0.878906 -0.0820312 0.796875 -0.03125 C 0.710938 0.0078125 0.617188 0.03125 0.515625 0.03125 C 0.421875 0.03125 0.332031 0.0078125 0.25 -0.03125 C 0.175781 -0.0703125 0.113281 -0.128906 0.0625 -0.203125 C 0.0390625 -0.234375 0.0390625 -0.257812 0.0625 -0.28125 L 0.234375 -0.421875 C 0.242188 -0.429688 0.253906 -0.4375 0.265625 -0.4375 C 0.285156 -0.4375 0.300781 -0.429688 0.3125 -0.421875 C 0.320312 -0.378906 0.34375 -0.347656 0.375 -0.328125 C 0.414062 -0.316406 0.460938 -0.3125 0.515625 -0.3125 C 0.578125 -0.3125 0.625 -0.332031 0.65625 -0.375 C 0.695312 -0.414062 0.71875 -0.46875 0.71875 -0.53125 Z M 0.71875 -0.53125 "/></g></g></g></g><g clip-path="url(#de28fd64a9)"><g fill="#0a6036" fill-opacity="1"><g transform="translate(48.945509, 3.009267)"><g><path d="M 1.796875 -0.0625 C 1.804688 -0.0390625 1.804688 -0.0234375 1.796875 -0.015625 C 1.785156 -0.00390625 1.769531 0 1.75 0 L 1.5 0 C 1.476562 0 1.460938 -0.00390625 1.453125 -0.015625 C 1.441406 -0.0234375 1.4375 -0.0351562 1.4375 -0.046875 L 1.359375 -0.21875 L 0.5 -0.21875 L 0.4375 -0.046875 C 0.425781 -0.0351562 0.414062 -0.0234375 0.40625 -0.015625 C 0.394531 -0.00390625 0.378906 0 0.359375 0 L 0.109375 0 C 0.0859375 0 0.0703125 -0.00390625 0.0625 -0.015625 C 0.0507812 -0.0234375 0.0507812 -0.0390625 0.0625 -0.0625 L 0.859375 -1.828125 C 0.859375 -1.847656 0.863281 -1.859375 0.875 -1.859375 C 0.894531 -1.867188 0.910156 -1.875 0.921875 -1.875 L 0.9375 -1.875 C 0.945312 -1.875 0.957031 -1.867188 0.96875 -1.859375 C 0.988281 -1.859375 1 -1.847656 1 -1.828125 Z M 0.625 -0.515625 L 1.234375 -0.515625 L 0.9375 -1.265625 Z M 0.625 -0.515625 "/></g></g></g></g><g clip-path="url(#11ccc7ac5b)"><g fill="#0a6036" fill-opacity="1"><g transform="translate(52.813584, 3.009267)"><g><path d="M 1.796875 -0.0625 C 1.804688 -0.0390625 1.804688 -0.0234375 1.796875 -0.015625 C 1.785156 -0.00390625 1.769531 0 1.75 0 L 1.5 0 C 1.476562 0 1.460938 -0.00390625 1.453125 -0.015625 C 1.441406 -0.0234375 1.4375 -0.0351562 1.4375 -0.046875 L 1.359375 -0.21875 L 0.5 -0.21875 L 0.4375 -0.046875 C 0.425781 -0.0351562 0.414062 -0.0234375 0.40625 -0.015625 C 0.394531 -0.00390625 0.378906 0 0.359375 0 L 0.109375 0 C 0.0859375 0 0.0703125 -0.00390625 0.0625 -0.015625 C 0.0507812 -0.0234375 0.0507812 -0.0390625 0.0625 -0.0625 L 0.859375 -1.828125 C 0.859375 -1.847656 0.863281 -1.859375 0.875 -1.859375 C 0.894531 -1.867188 0.910156 -1.875 0.921875 -1.875 L 0.9375 -1.875 C 0.945312 -1.875 0.957031 -1.867188 0.96875 -1.859375 C 0.988281 -1.859375 1 -1.847656 1 -1.828125 Z M 0.625 -0.515625 L 1.234375 -0.515625 L 0.9375 -1.265625 Z M 0.625 -0.515625 "/></g></g></g></g><g clip-path="url(#4d74637852)"><g fill="#0a6036" fill-opacity="1"><g transform="translate(56.681661, 3.009267)"><g><path d="M 1.828125 -1.859375 C 1.859375 -1.859375 1.875 -1.84375 1.875 -1.8125 L 1.875 -0.03125 C 1.875 -0.0078125 1.867188 0.00390625 1.859375 0.015625 C 1.847656 0.0234375 1.835938 0.03125 1.828125 0.03125 C 1.804688 0.03125 1.789062 0.0234375 1.78125 0.015625 C 1.769531 0.00390625 1.757812 -0.00390625 1.75 -0.015625 L 0.5625 -1.140625 L 0.5625 -0.046875 C 0.5625 -0.015625 0.550781 0 0.53125 0 L 0.265625 0 C 0.234375 0 0.21875 -0.015625 0.21875 -0.046875 L 0.21875 -1.828125 C 0.21875 -1.835938 0.222656 -1.847656 0.234375 -1.859375 C 0.242188 -1.867188 0.253906 -1.875 0.265625 -1.875 C 0.285156 -1.875 0.296875 -1.867188 0.296875 -1.859375 C 0.304688 -1.859375 0.320312 -1.847656 0.34375 -1.828125 L 1.53125 -0.703125 L 1.53125 -1.8125 C 1.53125 -1.84375 1.539062 -1.859375 1.5625 -1.859375 Z M 1.828125 -1.859375 "/></g></g></g></g></g></g></svg>