<svg xmlns="http://www.w3.org/2000/svg" xmlns:xlink="http://www.w3.org/1999/xlink" width="1366" zoomAndPan="magnify" viewBox="0 0 1024.5 477" height="636" preserveAspectRatio="xMidYMid meet" version="1.0"><defs><g/><clipPath id="3c07ab051a"><path d="M 13.09375 10.5625 L 416 10.5625 L 416 465.589844 L 13.09375 465.589844 Z M 13.09375 10.5625 " clip-rule="nonzero"/></clipPath><clipPath id="e77d768664"><rect x="0" width="572" y="0" height="55"/></clipPath><clipPath id="23d196bcc5"><rect x="0" width="558" y="0" height="26"/></clipPath></defs><path fill="#2c794d" d="M 366.769531 367.925781 C 380.433594 344.039062 388.242188 316.375 388.242188 286.890625 C 388.242188 277.144531 387.386719 267.601562 385.75 258.328125 C 379.132812 295.109375 359.578125 327.402344 331.957031 350.304688 C 315.972656 363.558594 292.183594 360.871094 279.675781 344.296875 L 256.332031 313.371094 C 252.449219 308.222656 246.375 305.199219 239.929688 305.199219 L 150.988281 305.199219 C 150.96875 305.199219 150.949219 305.203125 150.929688 305.203125 C 144.859375 305.246094 140.925781 311.644531 143.65625 317.082031 L 147.195312 324.132812 C 153.777344 337.242188 166.734375 345.957031 181.355469 347.109375 L 186.625 347.519531 L 209.691406 349.339844 C 216.21875 349.855469 222.105469 353.464844 225.523438 359.054688 L 235.984375 376.160156 L 241.839844 385.742188 L 274.652344 439.40625 C 275.234375 440.367188 275.96875 441.203125 276.800781 441.902344 C 279.207031 443.914062 282.464844 444.75 285.625 443.972656 C 285.648438 443.964844 285.667969 443.957031 285.695312 443.953125 C 370.800781 422.949219 436.367188 352.351562 449.976562 264.574219 C 438.027344 309.601562 407.34375 347.007812 366.769531 367.925781 " fill-opacity="1" fill-rule="nonzero"/><g clip-path="url(#3c07ab051a)"><path fill="#025384" d="M 219.246094 362.890625 C 217.066406 359.324219 213.277344 357 209.113281 356.671875 L 180.777344 354.441406 C 163.695312 353.09375 148.308594 342.75 140.621094 327.433594 L 137.269531 320.757812 C 134.882812 316.011719 134.828125 310.332031 137.460938 305.714844 C 140.175781 300.949219 145.070312 298.023438 150.5 297.851562 L 150.988281 297.84375 L 179.464844 297.84375 C 170.179688 283.1875 153.449219 274.945312 136.132812 276.5625 L 106.542969 279.328125 C 93.867188 280.511719 82.476562 271.773438 80.144531 259.261719 C 78.414062 249.984375 77.511719 240.417969 77.511719 230.640625 C 77.511719 181.066406 100.726562 136.914062 136.882812 108.464844 C 101.066406 132.050781 73.1875 166.714844 58.148438 207.585938 C 71.699219 109.128906 156.15625 33.289062 258.339844 33.289062 C 321.59375 33.289062 378.050781 62.351562 415.109375 107.847656 C 375.726562 49.523438 309.085938 11.117188 233.457031 10.921875 C 112.402344 10.605469 13.335938 109.246094 13.15625 230.308594 C 13.089844 272.921875 25.175781 312.707031 46.117188 346.414062 C 46.558594 347.125 46.992188 347.839844 47.445312 348.546875 L 76.773438 343.574219 C 89.875 341.359375 100.65625 354.023438 96.203125 366.542969 C 96.078125 366.886719 96 367.078125 96 367.078125 C 114.882812 373.941406 111.695312 392.335938 111.695312 392.335938 C 128.371094 399.9375 121.503906 415.632812 121.503906 415.632812 C 127.402344 418.070312 129.46875 422.835938 130 424.394531 C 130.273438 425.191406 130.574219 425.976562 130.878906 426.765625 L 142.285156 456.027344 C 144.246094 461.058594 150.269531 465.175781 155.667969 465.175781 C 162.484375 465.175781 167.199219 458.363281 164.804688 451.984375 L 159.464844 437.777344 L 152.347656 418.828125 C 151.847656 417.503906 152.753906 416.054688 154.195312 415.949219 C 155.136719 415.878906 155.996094 416.496094 156.359375 417.367188 L 165.714844 439.890625 L 172.636719 456.5625 C 175.023438 462.300781 181.316406 465.597656 187.285156 463.855469 C 194.433594 461.765625 197.992188 453.761719 194.761719 447.054688 C 194.757812 447.050781 194.757812 447.042969 194.753906 447.039062 L 177.625 411.652344 C 176.890625 410.132812 177.890625 408.347656 179.570312 408.1875 C 180.542969 408.089844 181.476562 408.59375 181.9375 409.449219 L 202.785156 448.300781 L 205.367188 453.117188 C 207.917969 457.867188 213.5 460.339844 218.617188 458.648438 C 222.597656 457.332031 225.246094 454.003906 225.949219 450.238281 C 226.375 447.945312 226.082031 445.488281 224.914062 443.230469 L 208.601562 411.613281 C 207.882812 410.21875 208.410156 408.4375 209.859375 407.839844 C 211.140625 407.304688 212.574219 407.851562 213.203125 409.035156 L 231.640625 443.863281 C 233.128906 446.675781 235.351562 448.859375 237.945312 450.300781 C 242.265625 452.695312 247.625 453.035156 252.40625 450.777344 C 253.328125 450.347656 254.175781 449.824219 254.964844 449.25 C 261.503906 444.5 263.550781 435.363281 259.167969 428.1875 L 219.246094 362.890625 " fill-opacity="1" fill-rule="nonzero"/></g><path fill="#2c794d" d="M 59.859375 376.097656 L 82.929688 372.269531 C 89.851562 371.121094 94.53125 364.578125 93.382812 357.65625 C 92.234375 350.734375 85.691406 346.050781 78.769531 347.199219 L 55.699219 351.027344 C 48.777344 352.171875 44.09375 358.71875 45.242188 365.640625 C 46.390625 372.5625 52.9375 377.242188 59.859375 376.097656 " fill-opacity="1" fill-rule="nonzero"/><path fill="#2c794d" d="M 105.152344 382.667969 C 104.007812 375.742188 97.460938 371.0625 90.539062 372.210938 L 59.050781 378.230469 C 52.128906 379.382812 47.445312 385.921875 48.59375 392.84375 C 49.742188 399.765625 56.285156 404.449219 63.210938 403.300781 L 94.699219 397.28125 C 101.621094 396.132812 106.300781 389.589844 105.152344 382.667969 " fill-opacity="1" fill-rule="nonzero"/><path fill="#2c794d" d="M 115.78125 408.824219 C 114.632812 401.898438 108.089844 397.21875 101.167969 398.371094 L 78.097656 402.195312 C 71.171875 403.34375 66.492188 409.886719 67.640625 416.8125 C 68.789062 423.734375 75.332031 428.414062 82.253906 427.265625 L 105.324219 423.4375 C 112.246094 422.289062 116.929688 415.75 115.78125 408.824219 " fill-opacity="1" fill-rule="nonzero"/><path fill="#2c794d" d="M 117.1875 422.894531 L 98.242188 425.910156 C 91.320312 427.054688 86.636719 433.597656 87.785156 440.523438 C 88.933594 447.445312 95.480469 452.125 102.402344 450.980469 L 121.347656 447.960938 C 128.269531 446.8125 132.949219 440.269531 131.800781 433.347656 C 130.652344 426.421875 124.109375 421.742188 117.1875 422.894531 " fill-opacity="1" fill-rule="nonzero"/><g transform="matrix(1, 0, 0, 1, 452, 229)"><g clip-path="url(#e77d768664)"><g fill="#025384" fill-opacity="1"><g transform="translate(1.841232, 42.979179)"><g><path d="M 17.796875 -40.71875 C 20.410156 -40.71875 22.804688 -40.320312 24.984375 -39.53125 C 27.160156 -38.738281 29.050781 -37.617188 30.65625 -36.171875 C 32.269531 -34.722656 33.519531 -33.015625 34.40625 -31.046875 C 35.289062 -29.078125 35.734375 -26.921875 35.734375 -24.578125 C 35.734375 -22.242188 35.289062 -20.097656 34.40625 -18.140625 C 33.519531 -16.179688 32.269531 -14.488281 30.65625 -13.0625 C 29.050781 -11.644531 27.160156 -10.546875 24.984375 -9.765625 C 22.804688 -8.992188 20.410156 -8.609375 17.796875 -8.609375 L 12.4375 -8.609375 L 12.4375 -1.15625 C 12.4375 -0.8125 12.328125 -0.523438 12.109375 -0.296875 C 11.898438 -0.078125 11.597656 0.03125 11.203125 0.03125 L 6.0625 0.03125 C 5.6875 0.03125 5.390625 -0.0703125 5.171875 -0.28125 C 4.960938 -0.5 4.859375 -0.789062 4.859375 -1.15625 L 4.859375 -39.546875 C 4.859375 -39.898438 4.96875 -40.179688 5.1875 -40.390625 C 5.40625 -40.609375 5.695312 -40.71875 6.0625 -40.71875 L 8.828125 -40.71875 C 9.378906 -40.71875 9.875 -40.71875 10.3125 -40.71875 C 10.757812 -40.71875 11.101562 -40.71875 11.34375 -40.71875 Z M 17.296875 -15.25 C 18.878906 -15.25 20.332031 -15.472656 21.65625 -15.921875 C 22.976562 -16.367188 24.125 -17.007812 25.09375 -17.84375 C 26.070312 -18.6875 26.828125 -19.679688 27.359375 -20.828125 C 27.898438 -21.972656 28.171875 -23.242188 28.171875 -24.640625 C 28.171875 -26.015625 27.898438 -27.273438 27.359375 -28.421875 C 26.828125 -29.566406 26.070312 -30.5625 25.09375 -31.40625 C 24.125 -32.257812 22.976562 -32.914062 21.65625 -33.375 C 20.332031 -33.84375 18.878906 -34.078125 17.296875 -34.078125 L 12.4375 -34.078125 L 12.4375 -15.25 Z M 17.296875 -15.25 "/></g></g></g><g fill="#025384" fill-opacity="1"><g transform="translate(45.378428, 42.979179)"><g><path d="M 12.40625 -39.859375 L 12.40625 -0.859375 C 12.40625 -0.265625 12.101562 0.03125 11.5 0.03125 L 5.734375 0.03125 C 5.148438 0.03125 4.859375 -0.265625 4.859375 -0.859375 L 4.859375 -39.859375 C 4.859375 -40.472656 5.148438 -40.78125 5.734375 -40.78125 L 11.5 -40.78125 C 12.101562 -40.78125 12.40625 -40.472656 12.40625 -39.859375 Z M 12.40625 -39.859375 "/></g></g></g><g fill="#025384" fill-opacity="1"><g transform="translate(68.136737, 42.979179)"><g/></g></g><g fill="#025384" fill-opacity="1"><g transform="translate(90.895046, 42.979179)"><g><path d="M 48.5 -1.203125 C 48.53125 -0.773438 48.4375 -0.460938 48.21875 -0.265625 C 48.007812 -0.0664062 47.707031 0.03125 47.3125 0.03125 L 42.125 0.03125 C 41.75 0.03125 41.457031 -0.0546875 41.25 -0.234375 C 41.039062 -0.421875 40.921875 -0.71875 40.890625 -1.125 L 38.953125 -21.015625 L 26.859375 -0.484375 C 26.628906 -0.109375 26.429688 0.160156 26.265625 0.328125 C 26.109375 0.503906 25.867188 0.59375 25.546875 0.59375 L 25.515625 0.59375 C 25.179688 0.59375 24.9375 0.503906 24.78125 0.328125 C 24.632812 0.160156 24.4375 -0.109375 24.1875 -0.484375 L 12.125 -20.984375 L 10.15625 -1.125 C 10.101562 -0.71875 9.976562 -0.421875 9.78125 -0.234375 C 9.582031 -0.0546875 9.296875 0.03125 8.921875 0.03125 L 3.71875 0.03125 C 3.332031 0.03125 3.023438 -0.0664062 2.796875 -0.265625 C 2.578125 -0.460938 2.492188 -0.773438 2.546875 -1.203125 L 6.484375 -40.34375 C 6.535156 -41.007812 6.875 -41.34375 7.5 -41.34375 L 7.640625 -41.34375 C 7.984375 -41.34375 8.21875 -41.253906 8.34375 -41.078125 C 8.46875 -40.910156 8.617188 -40.6875 8.796875 -40.40625 L 25.515625 -12.015625 L 42.25 -40.40625 C 42.425781 -40.6875 42.578125 -40.910156 42.703125 -41.078125 C 42.828125 -41.253906 43.0625 -41.34375 43.40625 -41.34375 L 43.515625 -41.34375 C 44.117188 -41.34375 44.46875 -41.007812 44.5625 -40.34375 Z M 48.5 -1.203125 "/></g></g></g><g fill="#025384" fill-opacity="1"><g transform="translate(147.408983, 42.979179)"><g><path d="M 39.4375 -1.3125 C 39.613281 -0.914062 39.617188 -0.585938 39.453125 -0.328125 C 39.296875 -0.078125 38.992188 0.046875 38.546875 0.046875 L 32.78125 0.046875 C 32.476562 0.046875 32.207031 -0.0507812 31.96875 -0.25 C 31.726562 -0.457031 31.546875 -0.703125 31.421875 -0.984375 L 29.78125 -4.953125 L 11.078125 -4.953125 L 9.4375 -1.015625 C 9.3125 -0.734375 9.128906 -0.488281 8.890625 -0.28125 C 8.660156 -0.0703125 8.378906 0.03125 8.046875 0.03125 L 2.3125 0.03125 C 1.863281 0.03125 1.550781 -0.09375 1.375 -0.34375 C 1.207031 -0.59375 1.210938 -0.925781 1.390625 -1.34375 L 18.734375 -40.21875 C 18.878906 -40.539062 19.085938 -40.796875 19.359375 -40.984375 C 19.640625 -41.171875 19.925781 -41.265625 20.21875 -41.265625 L 20.5625 -41.265625 C 20.882812 -41.265625 21.175781 -41.164062 21.4375 -40.96875 C 21.695312 -40.769531 21.894531 -40.507812 22.03125 -40.1875 Z M 13.734375 -11.453125 L 27.109375 -11.453125 L 20.421875 -27.671875 Z M 13.734375 -11.453125 "/></g></g></g><g fill="#025384" fill-opacity="1"><g transform="translate(193.734568, 42.979179)"><g><path d="M 40.21875 -40.78125 C 40.820312 -40.78125 41.125 -40.484375 41.125 -39.890625 L 41.125 -0.71875 C 41.125 -0.332031 41.019531 -0.03125 40.8125 0.1875 C 40.613281 0.414062 40.367188 0.53125 40.078125 0.53125 L 40.03125 0.53125 C 39.6875 0.53125 39.398438 0.429688 39.171875 0.234375 C 38.941406 0.046875 38.671875 -0.171875 38.359375 -0.421875 L 12.4375 -25.046875 L 12.4375 -0.859375 C 12.4375 -0.265625 12.144531 0.03125 11.5625 0.03125 L 5.765625 0.03125 C 5.160156 0.03125 4.859375 -0.265625 4.859375 -0.859375 L 4.859375 -40.078125 C 4.859375 -40.421875 4.953125 -40.703125 5.140625 -40.921875 C 5.328125 -41.148438 5.5625 -41.265625 5.84375 -41.265625 L 5.953125 -41.265625 C 6.234375 -41.265625 6.484375 -41.164062 6.703125 -40.96875 C 6.921875 -40.769531 7.171875 -40.546875 7.453125 -40.296875 L 33.5625 -15.578125 L 33.5625 -39.890625 C 33.5625 -40.484375 33.859375 -40.78125 34.453125 -40.78125 Z M 40.21875 -40.78125 "/></g></g></g><g fill="#025384" fill-opacity="1"><g transform="translate(245.207953, 42.979179)"><g><path d="M 39.4375 -1.3125 C 39.613281 -0.914062 39.617188 -0.585938 39.453125 -0.328125 C 39.296875 -0.078125 38.992188 0.046875 38.546875 0.046875 L 32.78125 0.046875 C 32.476562 0.046875 32.207031 -0.0507812 31.96875 -0.25 C 31.726562 -0.457031 31.546875 -0.703125 31.421875 -0.984375 L 29.78125 -4.953125 L 11.078125 -4.953125 L 9.4375 -1.015625 C 9.3125 -0.734375 9.128906 -0.488281 8.890625 -0.28125 C 8.660156 -0.0703125 8.378906 0.03125 8.046875 0.03125 L 2.3125 0.03125 C 1.863281 0.03125 1.550781 -0.09375 1.375 -0.34375 C 1.207031 -0.59375 1.210938 -0.925781 1.390625 -1.34375 L 18.734375 -40.21875 C 18.878906 -40.539062 19.085938 -40.796875 19.359375 -40.984375 C 19.640625 -41.171875 19.925781 -41.265625 20.21875 -41.265625 L 20.5625 -41.265625 C 20.882812 -41.265625 21.175781 -41.164062 21.4375 -40.96875 C 21.695312 -40.769531 21.894531 -40.507812 22.03125 -40.1875 Z M 13.734375 -11.453125 L 27.109375 -11.453125 L 20.421875 -27.671875 Z M 13.734375 -11.453125 "/></g></g></g><g fill="#025384" fill-opacity="1"><g transform="translate(291.533538, 42.979179)"><g><path d="M 36.84375 -20.71875 C 37.425781 -20.71875 37.71875 -20.414062 37.71875 -19.8125 L 37.71875 -4.5 C 37.71875 -4.269531 37.660156 -4.03125 37.546875 -3.78125 C 37.429688 -3.53125 37.273438 -3.332031 37.078125 -3.1875 C 36.285156 -2.65625 35.367188 -2.15625 34.328125 -1.6875 C 33.285156 -1.21875 32.164062 -0.8125 30.96875 -0.46875 C 29.769531 -0.125 28.550781 0.144531 27.3125 0.34375 C 26.082031 0.539062 24.894531 0.640625 23.75 0.640625 C 21.375 0.640625 19.113281 0.296875 16.96875 -0.390625 C 14.820312 -1.078125 12.859375 -2.054688 11.078125 -3.328125 C 9.304688 -4.597656 7.769531 -6.101562 6.46875 -7.84375 C 5.175781 -9.582031 4.175781 -11.503906 3.46875 -13.609375 C 2.757812 -15.722656 2.40625 -17.96875 2.40625 -20.34375 C 2.40625 -22.707031 2.757812 -24.945312 3.46875 -27.0625 C 4.175781 -29.175781 5.175781 -31.097656 6.46875 -32.828125 C 7.769531 -34.566406 9.304688 -36.078125 11.078125 -37.359375 C 12.847656 -38.640625 14.800781 -39.625 16.9375 -40.3125 C 19.082031 -41 21.347656 -41.34375 23.734375 -41.34375 C 25.109375 -41.34375 26.550781 -41.1875 28.0625 -40.875 C 29.570312 -40.570312 31.035156 -40.113281 32.453125 -39.5 C 33.867188 -38.882812 35.132812 -38.113281 36.25 -37.1875 C 36.5 -36.96875 36.648438 -36.703125 36.703125 -36.390625 C 36.753906 -36.078125 36.691406 -35.796875 36.515625 -35.546875 L 33.5625 -31.078125 C 33.363281 -30.785156 33.109375 -30.625 32.796875 -30.59375 C 32.484375 -30.570312 32.195312 -30.675781 31.9375 -30.90625 C 31.125 -31.601562 30.242188 -32.164062 29.296875 -32.59375 C 28.347656 -33.03125 27.394531 -33.34375 26.4375 -33.53125 C 25.488281 -33.726562 24.59375 -33.828125 23.75 -33.828125 C 21.820312 -33.828125 20.023438 -33.484375 18.359375 -32.796875 C 16.703125 -32.109375 15.25 -31.148438 14 -29.921875 C 12.75 -28.703125 11.769531 -27.273438 11.0625 -25.640625 C 10.351562 -24.003906 10 -22.238281 10 -20.34375 C 10 -18.4375 10.335938 -16.648438 11.015625 -14.984375 C 11.691406 -13.328125 12.640625 -11.867188 13.859375 -10.609375 C 15.085938 -9.347656 16.539062 -8.359375 18.21875 -7.640625 C 19.90625 -6.921875 21.75 -6.5625 23.75 -6.5625 C 24.445312 -6.5625 25.210938 -6.648438 26.046875 -6.828125 C 26.890625 -7.015625 27.707031 -7.265625 28.5 -7.578125 C 29.300781 -7.890625 29.972656 -8.234375 30.515625 -8.609375 L 30.515625 -14.390625 L 23.5625 -14.390625 C 22.988281 -14.390625 22.703125 -14.6875 22.703125 -15.28125 L 22.703125 -19.8125 C 22.703125 -20.414062 22.988281 -20.71875 23.5625 -20.71875 Z M 36.84375 -20.71875 "/></g></g></g><g fill="#025384" fill-opacity="1"><g transform="translate(338.288107, 42.979179)"><g><path d="M 34.34375 -7.1875 C 34.84375 -7.1875 35.238281 -7.050781 35.53125 -6.78125 C 35.832031 -6.507812 35.984375 -6.144531 35.984375 -5.6875 L 35.984375 -1.171875 C 35.984375 -0.816406 35.867188 -0.53125 35.640625 -0.3125 C 35.421875 -0.101562 35.125 0 34.75 0 L 6.0625 0 C 5.257812 0 4.859375 -0.390625 4.859375 -1.171875 L 4.859375 -39.515625 C 4.859375 -40.316406 5.257812 -40.71875 6.0625 -40.71875 L 34.1875 -40.71875 C 34.570312 -40.71875 34.875 -40.609375 35.09375 -40.390625 C 35.3125 -40.179688 35.421875 -39.898438 35.421875 -39.546875 L 35.421875 -34.765625 C 35.421875 -33.941406 35.007812 -33.53125 34.1875 -33.53125 L 12.4375 -33.53125 L 12.4375 -22.3125 L 29.46875 -22.3125 C 29.914062 -22.3125 30.265625 -22.203125 30.515625 -21.984375 C 30.765625 -21.765625 30.890625 -21.453125 30.890625 -21.046875 L 30.890625 -16.5625 C 30.890625 -16.207031 30.765625 -15.914062 30.515625 -15.6875 C 30.265625 -15.46875 29.914062 -15.359375 29.46875 -15.359375 L 12.4375 -15.359375 L 12.4375 -7.1875 Z M 34.34375 -7.1875 "/></g></g></g><g fill="#025384" fill-opacity="1"><g transform="translate(382.4956, 42.979179)"><g><path d="M 48.5 -1.203125 C 48.53125 -0.773438 48.4375 -0.460938 48.21875 -0.265625 C 48.007812 -0.0664062 47.707031 0.03125 47.3125 0.03125 L 42.125 0.03125 C 41.75 0.03125 41.457031 -0.0546875 41.25 -0.234375 C 41.039062 -0.421875 40.921875 -0.71875 40.890625 -1.125 L 38.953125 -21.015625 L 26.859375 -0.484375 C 26.628906 -0.109375 26.429688 0.160156 26.265625 0.328125 C 26.109375 0.503906 25.867188 0.59375 25.546875 0.59375 L 25.515625 0.59375 C 25.179688 0.59375 24.9375 0.503906 24.78125 0.328125 C 24.632812 0.160156 24.4375 -0.109375 24.1875 -0.484375 L 12.125 -20.984375 L 10.15625 -1.125 C 10.101562 -0.71875 9.976562 -0.421875 9.78125 -0.234375 C 9.582031 -0.0546875 9.296875 0.03125 8.921875 0.03125 L 3.71875 0.03125 C 3.332031 0.03125 3.023438 -0.0664062 2.796875 -0.265625 C 2.578125 -0.460938 2.492188 -0.773438 2.546875 -1.203125 L 6.484375 -40.34375 C 6.535156 -41.007812 6.875 -41.34375 7.5 -41.34375 L 7.640625 -41.34375 C 7.984375 -41.34375 8.21875 -41.253906 8.34375 -41.078125 C 8.46875 -40.910156 8.617188 -40.6875 8.796875 -40.40625 L 25.515625 -12.015625 L 42.25 -40.40625 C 42.425781 -40.6875 42.578125 -40.910156 42.703125 -41.078125 C 42.828125 -41.253906 43.0625 -41.34375 43.40625 -41.34375 L 43.515625 -41.34375 C 44.117188 -41.34375 44.46875 -41.007812 44.5625 -40.34375 Z M 48.5 -1.203125 "/></g></g></g><g fill="#025384" fill-opacity="1"><g transform="translate(439.009514, 42.979179)"><g><path d="M 34.34375 -7.1875 C 34.84375 -7.1875 35.238281 -7.050781 35.53125 -6.78125 C 35.832031 -6.507812 35.984375 -6.144531 35.984375 -5.6875 L 35.984375 -1.171875 C 35.984375 -0.816406 35.867188 -0.53125 35.640625 -0.3125 C 35.421875 -0.101562 35.125 0 34.75 0 L 6.0625 0 C 5.257812 0 4.859375 -0.390625 4.859375 -1.171875 L 4.859375 -39.515625 C 4.859375 -40.316406 5.257812 -40.71875 6.0625 -40.71875 L 34.1875 -40.71875 C 34.570312 -40.71875 34.875 -40.609375 35.09375 -40.390625 C 35.3125 -40.179688 35.421875 -39.898438 35.421875 -39.546875 L 35.421875 -34.765625 C 35.421875 -33.941406 35.007812 -33.53125 34.1875 -33.53125 L 12.4375 -33.53125 L 12.4375 -22.3125 L 29.46875 -22.3125 C 29.914062 -22.3125 30.265625 -22.203125 30.515625 -21.984375 C 30.765625 -21.765625 30.890625 -21.453125 30.890625 -21.046875 L 30.890625 -16.5625 C 30.890625 -16.207031 30.765625 -15.914062 30.515625 -15.6875 C 30.265625 -15.46875 29.914062 -15.359375 29.46875 -15.359375 L 12.4375 -15.359375 L 12.4375 -7.1875 Z M 34.34375 -7.1875 "/></g></g></g><g fill="#025384" fill-opacity="1"><g transform="translate(483.216962, 42.979179)"><g><path d="M 40.21875 -40.78125 C 40.820312 -40.78125 41.125 -40.484375 41.125 -39.890625 L 41.125 -0.71875 C 41.125 -0.332031 41.019531 -0.03125 40.8125 0.1875 C 40.613281 0.414062 40.367188 0.53125 40.078125 0.53125 L 40.03125 0.53125 C 39.6875 0.53125 39.398438 0.429688 39.171875 0.234375 C 38.941406 0.046875 38.671875 -0.171875 38.359375 -0.421875 L 12.4375 -25.046875 L 12.4375 -0.859375 C 12.4375 -0.265625 12.144531 0.03125 11.5625 0.03125 L 5.765625 0.03125 C 5.160156 0.03125 4.859375 -0.265625 4.859375 -0.859375 L 4.859375 -40.078125 C 4.859375 -40.421875 4.953125 -40.703125 5.140625 -40.921875 C 5.328125 -41.148438 5.5625 -41.265625 5.84375 -41.265625 L 5.953125 -41.265625 C 6.234375 -41.265625 6.484375 -41.164062 6.703125 -40.96875 C 6.921875 -40.769531 7.171875 -40.546875 7.453125 -40.296875 L 33.5625 -15.578125 L 33.5625 -39.890625 C 33.5625 -40.484375 33.859375 -40.78125 34.453125 -40.78125 Z M 40.21875 -40.78125 "/></g></g></g><g fill="#025384" fill-opacity="1"><g transform="translate(534.690368, 42.979179)"><g><path d="M 1.578125 -35.3125 L 1.578125 -39.546875 C 1.578125 -40.328125 1.972656 -40.71875 2.765625 -40.71875 L 30.671875 -40.71875 C 31.023438 -40.71875 31.304688 -40.609375 31.515625 -40.390625 C 31.722656 -40.179688 31.828125 -39.898438 31.828125 -39.546875 L 31.828125 -35.3125 C 31.828125 -34.507812 31.441406 -34.109375 30.671875 -34.109375 L 20.453125 -34.109375 L 20.453125 -1.15625 C 20.453125 -0.363281 20.050781 0.03125 19.25 0.03125 L 14.078125 0.03125 C 13.285156 0.03125 12.890625 -0.363281 12.890625 -1.15625 L 12.890625 -34.109375 L 2.765625 -34.109375 C 2.398438 -34.109375 2.109375 -34.207031 1.890625 -34.40625 C 1.679688 -34.613281 1.578125 -34.914062 1.578125 -35.3125 Z M 1.578125 -35.3125 "/></g></g></g></g></g><g transform="matrix(1, 0, 0, 1, 459, 196)"><g clip-path="url(#23d196bcc5)"><g fill="#0a6036" fill-opacity="1"><g transform="translate(1.061616, 19.77281)"><g><path d="M 16.609375 -0.546875 C 16.679688 -0.390625 16.679688 -0.253906 16.609375 -0.140625 C 16.546875 -0.0351562 16.421875 0.015625 16.234375 0.015625 L 13.8125 0.015625 C 13.6875 0.015625 13.570312 -0.0234375 13.46875 -0.109375 C 13.363281 -0.191406 13.285156 -0.296875 13.234375 -0.421875 L 12.546875 -2.09375 L 4.65625 -2.09375 L 3.96875 -0.421875 C 3.914062 -0.304688 3.84375 -0.203125 3.75 -0.109375 C 3.65625 -0.0234375 3.535156 0.015625 3.390625 0.015625 L 0.96875 0.015625 C 0.78125 0.015625 0.648438 -0.0351562 0.578125 -0.140625 C 0.503906 -0.253906 0.507812 -0.394531 0.59375 -0.5625 L 7.890625 -16.9375 C 7.953125 -17.070312 8.039062 -17.175781 8.15625 -17.25 C 8.269531 -17.332031 8.390625 -17.375 8.515625 -17.375 L 8.65625 -17.375 C 8.789062 -17.375 8.910156 -17.332031 9.015625 -17.25 C 9.128906 -17.164062 9.21875 -17.054688 9.28125 -16.921875 Z M 5.78125 -4.828125 L 11.421875 -4.828125 L 8.609375 -11.65625 Z M 5.78125 -4.828125 "/></g></g></g><g fill="#0a6036" fill-opacity="1"><g transform="translate(36.756428, 19.77281)"><g><path d="M 15.515625 -8.734375 C 15.765625 -8.734375 15.890625 -8.601562 15.890625 -8.34375 L 15.890625 -1.890625 C 15.890625 -1.796875 15.863281 -1.695312 15.8125 -1.59375 C 15.757812 -1.488281 15.691406 -1.40625 15.609375 -1.34375 C 15.285156 -1.113281 14.898438 -0.898438 14.453125 -0.703125 C 14.015625 -0.515625 13.539062 -0.347656 13.03125 -0.203125 C 12.53125 -0.0546875 12.019531 0.0546875 11.5 0.140625 C 10.988281 0.222656 10.488281 0.265625 10 0.265625 C 9 0.265625 8.046875 0.125 7.140625 -0.15625 C 6.242188 -0.445312 5.421875 -0.859375 4.671875 -1.390625 C 3.921875 -1.929688 3.269531 -2.566406 2.71875 -3.296875 C 2.175781 -4.035156 1.753906 -4.847656 1.453125 -5.734375 C 1.160156 -6.617188 1.015625 -7.5625 1.015625 -8.5625 C 1.015625 -9.5625 1.160156 -10.503906 1.453125 -11.390625 C 1.753906 -12.285156 2.175781 -13.097656 2.71875 -13.828125 C 3.269531 -14.554688 3.914062 -15.191406 4.65625 -15.734375 C 5.40625 -16.273438 6.226562 -16.6875 7.125 -16.96875 C 8.03125 -17.257812 8.988281 -17.40625 10 -17.40625 C 10.570312 -17.40625 11.175781 -17.34375 11.8125 -17.21875 C 12.445312 -17.09375 13.0625 -16.898438 13.65625 -16.640625 C 14.257812 -16.378906 14.796875 -16.050781 15.265625 -15.65625 C 15.367188 -15.570312 15.429688 -15.460938 15.453125 -15.328125 C 15.472656 -15.191406 15.445312 -15.070312 15.375 -14.96875 L 14.140625 -13.09375 C 14.054688 -12.96875 13.945312 -12.898438 13.8125 -12.890625 C 13.6875 -12.878906 13.566406 -12.921875 13.453125 -13.015625 C 13.109375 -13.304688 12.738281 -13.539062 12.34375 -13.71875 C 11.945312 -13.90625 11.546875 -14.039062 11.140625 -14.125 C 10.734375 -14.207031 10.351562 -14.25 10 -14.25 C 9.1875 -14.25 8.429688 -14.101562 7.734375 -13.8125 C 7.035156 -13.519531 6.421875 -13.113281 5.890625 -12.59375 C 5.367188 -12.082031 4.957031 -11.484375 4.65625 -10.796875 C 4.363281 -10.109375 4.21875 -9.363281 4.21875 -8.5625 C 4.21875 -7.757812 4.359375 -7.007812 4.640625 -6.3125 C 4.921875 -5.613281 5.316406 -5 5.828125 -4.46875 C 6.347656 -3.9375 6.960938 -3.519531 7.671875 -3.21875 C 8.378906 -2.914062 9.15625 -2.765625 10 -2.765625 C 10.289062 -2.765625 10.613281 -2.800781 10.96875 -2.875 C 11.320312 -2.957031 11.664062 -3.0625 12 -3.1875 C 12.34375 -3.320312 12.625 -3.46875 12.84375 -3.625 L 12.84375 -6.0625 L 9.921875 -6.0625 C 9.679688 -6.0625 9.5625 -6.1875 9.5625 -6.4375 L 9.5625 -8.34375 C 9.5625 -8.601562 9.679688 -8.734375 9.921875 -8.734375 Z M 15.515625 -8.734375 "/></g></g></g><g fill="#0a6036" fill-opacity="1"><g transform="translate(72.631892, 19.77281)"><g><path d="M 14.46875 -3.03125 C 14.675781 -3.03125 14.84375 -2.972656 14.96875 -2.859375 C 15.09375 -2.742188 15.15625 -2.585938 15.15625 -2.390625 L 15.15625 -0.5 C 15.15625 -0.34375 15.109375 -0.21875 15.015625 -0.125 C 14.921875 -0.0390625 14.796875 0 14.640625 0 L 2.546875 0 C 2.210938 0 2.046875 -0.164062 2.046875 -0.5 L 2.046875 -16.640625 C 2.046875 -16.984375 2.210938 -17.15625 2.546875 -17.15625 L 14.390625 -17.15625 C 14.554688 -17.15625 14.6875 -17.109375 14.78125 -17.015625 C 14.875 -16.921875 14.921875 -16.800781 14.921875 -16.65625 L 14.921875 -14.640625 C 14.921875 -14.296875 14.742188 -14.125 14.390625 -14.125 L 5.234375 -14.125 L 5.234375 -9.390625 L 12.40625 -9.390625 C 12.59375 -9.390625 12.738281 -9.34375 12.84375 -9.25 C 12.957031 -9.164062 13.015625 -9.035156 13.015625 -8.859375 L 13.015625 -6.984375 C 13.015625 -6.828125 12.957031 -6.703125 12.84375 -6.609375 C 12.738281 -6.515625 12.59375 -6.46875 12.40625 -6.46875 L 5.234375 -6.46875 L 5.234375 -3.03125 Z M 14.46875 -3.03125 "/></g></g></g><g fill="#0a6036" fill-opacity="1"><g transform="translate(107.434727, 19.77281)"><g><path d="M 16.9375 -17.171875 C 17.195312 -17.171875 17.328125 -17.046875 17.328125 -16.796875 L 17.328125 -0.3125 C 17.328125 -0.144531 17.28125 -0.015625 17.1875 0.078125 C 17.101562 0.171875 17 0.21875 16.875 0.21875 L 16.859375 0.21875 C 16.710938 0.21875 16.585938 0.175781 16.484375 0.09375 C 16.390625 0.0195312 16.28125 -0.0703125 16.15625 -0.1875 L 5.234375 -10.546875 L 5.234375 -0.359375 C 5.234375 -0.109375 5.109375 0.015625 4.859375 0.015625 L 2.421875 0.015625 C 2.171875 0.015625 2.046875 -0.109375 2.046875 -0.359375 L 2.046875 -16.875 C 2.046875 -17.019531 2.082031 -17.140625 2.15625 -17.234375 C 2.238281 -17.328125 2.34375 -17.375 2.46875 -17.375 L 2.5 -17.375 C 2.625 -17.375 2.726562 -17.332031 2.8125 -17.25 C 2.90625 -17.164062 3.015625 -17.070312 3.140625 -16.96875 L 14.140625 -6.5625 L 14.140625 -16.796875 C 14.140625 -17.046875 14.265625 -17.171875 14.515625 -17.171875 Z M 16.9375 -17.171875 "/></g></g></g><g fill="#0a6036" fill-opacity="1"><g transform="translate(145.297378, 19.77281)"><g><path d="M 13.375 -4.125 C 13.519531 -4.226562 13.664062 -4.273438 13.8125 -4.265625 C 13.957031 -4.253906 14.066406 -4.195312 14.140625 -4.09375 L 15.4375 -2.140625 C 15.5 -2.054688 15.503906 -1.945312 15.453125 -1.8125 C 15.410156 -1.6875 15.328125 -1.578125 15.203125 -1.484375 C 14.742188 -1.128906 14.222656 -0.820312 13.640625 -0.5625 C 13.054688 -0.300781 12.453125 -0.0976562 11.828125 0.046875 C 11.203125 0.191406 10.59375 0.265625 10 0.265625 C 9 0.265625 8.046875 0.125 7.140625 -0.15625 C 6.242188 -0.445312 5.421875 -0.859375 4.671875 -1.390625 C 3.929688 -1.929688 3.285156 -2.566406 2.734375 -3.296875 C 2.191406 -4.035156 1.769531 -4.847656 1.46875 -5.734375 C 1.164062 -6.617188 1.015625 -7.5625 1.015625 -8.5625 C 1.015625 -9.550781 1.164062 -10.488281 1.46875 -11.375 C 1.769531 -12.269531 2.191406 -13.082031 2.734375 -13.8125 C 3.285156 -14.550781 3.929688 -15.1875 4.671875 -15.71875 C 5.421875 -16.257812 6.242188 -16.675781 7.140625 -16.96875 C 8.046875 -17.257812 9 -17.40625 10 -17.40625 C 10.570312 -17.40625 11.175781 -17.332031 11.8125 -17.1875 C 12.445312 -17.050781 13.0625 -16.847656 13.65625 -16.578125 C 14.257812 -16.316406 14.796875 -15.992188 15.265625 -15.609375 C 15.410156 -15.503906 15.488281 -15.390625 15.5 -15.265625 C 15.519531 -15.148438 15.5 -15.050781 15.4375 -14.96875 L 14.140625 -13.015625 C 14.085938 -12.921875 13.988281 -12.863281 13.84375 -12.84375 C 13.707031 -12.820312 13.566406 -12.875 13.421875 -13 C 12.941406 -13.40625 12.394531 -13.710938 11.78125 -13.921875 C 11.175781 -14.128906 10.582031 -14.234375 10 -14.234375 C 9.195312 -14.234375 8.441406 -14.085938 7.734375 -13.796875 C 7.035156 -13.515625 6.421875 -13.113281 5.890625 -12.59375 C 5.359375 -12.070312 4.941406 -11.46875 4.640625 -10.78125 C 4.347656 -10.09375 4.203125 -9.351562 4.203125 -8.5625 C 4.203125 -7.769531 4.351562 -7.03125 4.65625 -6.34375 C 4.957031 -5.65625 5.375 -5.050781 5.90625 -4.53125 C 6.4375 -4.019531 7.050781 -3.617188 7.75 -3.328125 C 8.445312 -3.046875 9.195312 -2.90625 10 -2.90625 C 10.5625 -2.90625 11.144531 -3.007812 11.75 -3.21875 C 12.363281 -3.4375 12.90625 -3.738281 13.375 -4.125 Z M 13.375 -4.125 "/></g></g></g><g fill="#0a6036" fill-opacity="1"><g transform="translate(180.427648, 19.77281)"><g><path d="M 14.421875 -17.171875 C 14.585938 -17.171875 14.703125 -17.117188 14.765625 -17.015625 C 14.835938 -16.910156 14.835938 -16.765625 14.765625 -16.578125 L 9.140625 -6.78125 L 9.140625 -0.5 C 9.140625 -0.15625 8.976562 0.015625 8.65625 0.015625 L 6.453125 0.015625 C 6.109375 0.015625 5.9375 -0.15625 5.9375 -0.5 L 5.9375 -6.8125 L 0.328125 -16.578125 C 0.253906 -16.773438 0.25 -16.921875 0.3125 -17.015625 C 0.382812 -17.117188 0.507812 -17.171875 0.6875 -17.171875 L 3.25 -17.171875 C 3.363281 -17.171875 3.472656 -17.128906 3.578125 -17.046875 C 3.691406 -16.960938 3.78125 -16.859375 3.84375 -16.734375 L 7.546875 -10.03125 L 11.234375 -16.75 C 11.390625 -17.03125 11.597656 -17.171875 11.859375 -17.171875 Z M 14.421875 -17.171875 "/></g></g></g><g fill="#0a6036" fill-opacity="1"><g transform="translate(214.022364, 19.77281)"><g/></g></g><g fill="#0a6036" fill-opacity="1"><g transform="translate(239.792536, 19.77281)"><g><path d="M 7.5 -17.15625 C 8.59375 -17.15625 9.597656 -16.984375 10.515625 -16.640625 C 11.441406 -16.304688 12.242188 -15.832031 12.921875 -15.21875 C 13.597656 -14.613281 14.117188 -13.894531 14.484375 -13.0625 C 14.859375 -12.238281 15.046875 -11.335938 15.046875 -10.359375 C 15.046875 -9.367188 14.859375 -8.460938 14.484375 -7.640625 C 14.117188 -6.816406 13.597656 -6.101562 12.921875 -5.5 C 12.242188 -4.90625 11.441406 -4.441406 10.515625 -4.109375 C 9.597656 -3.785156 8.59375 -3.625 7.5 -3.625 L 5.234375 -3.625 L 5.234375 -0.484375 C 5.234375 -0.335938 5.1875 -0.21875 5.09375 -0.125 C 5.007812 -0.03125 4.882812 0.015625 4.71875 0.015625 L 2.546875 0.015625 C 2.390625 0.015625 2.265625 -0.03125 2.171875 -0.125 C 2.085938 -0.21875 2.046875 -0.335938 2.046875 -0.484375 L 2.046875 -16.65625 C 2.046875 -16.800781 2.09375 -16.921875 2.1875 -17.015625 C 2.28125 -17.109375 2.398438 -17.15625 2.546875 -17.15625 L 3.71875 -17.15625 C 3.945312 -17.15625 4.15625 -17.15625 4.34375 -17.15625 C 4.53125 -17.15625 4.675781 -17.15625 4.78125 -17.15625 Z M 7.28125 -6.421875 C 7.945312 -6.421875 8.554688 -6.515625 9.109375 -6.703125 C 9.671875 -6.890625 10.15625 -7.160156 10.5625 -7.515625 C 10.976562 -7.867188 11.300781 -8.285156 11.53125 -8.765625 C 11.757812 -9.253906 11.875 -9.789062 11.875 -10.375 C 11.875 -10.957031 11.757812 -11.488281 11.53125 -11.96875 C 11.300781 -12.445312 10.976562 -12.863281 10.5625 -13.21875 C 10.15625 -13.582031 9.671875 -13.859375 9.109375 -14.046875 C 8.554688 -14.242188 7.945312 -14.34375 7.28125 -14.34375 L 5.234375 -14.34375 L 5.234375 -6.421875 Z M 7.28125 -6.421875 "/></g></g></g><g fill="#0a6036" fill-opacity="1"><g transform="translate(274.313101, 19.77281)"><g><path d="M 14.46875 -3.03125 C 14.675781 -3.03125 14.84375 -2.972656 14.96875 -2.859375 C 15.09375 -2.742188 15.15625 -2.585938 15.15625 -2.390625 L 15.15625 -0.5 C 15.15625 -0.34375 15.109375 -0.21875 15.015625 -0.125 C 14.921875 -0.0390625 14.796875 0 14.640625 0 L 2.546875 0 C 2.210938 0 2.046875 -0.164062 2.046875 -0.5 L 2.046875 -16.640625 C 2.046875 -16.984375 2.210938 -17.15625 2.546875 -17.15625 L 14.390625 -17.15625 C 14.554688 -17.15625 14.6875 -17.109375 14.78125 -17.015625 C 14.875 -16.921875 14.921875 -16.800781 14.921875 -16.65625 L 14.921875 -14.640625 C 14.921875 -14.296875 14.742188 -14.125 14.390625 -14.125 L 5.234375 -14.125 L 5.234375 -9.390625 L 12.40625 -9.390625 C 12.59375 -9.390625 12.738281 -9.34375 12.84375 -9.25 C 12.957031 -9.164062 13.015625 -9.035156 13.015625 -8.859375 L 13.015625 -6.984375 C 13.015625 -6.828125 12.957031 -6.703125 12.84375 -6.609375 C 12.738281 -6.515625 12.59375 -6.46875 12.40625 -6.46875 L 5.234375 -6.46875 L 5.234375 -3.03125 Z M 14.46875 -3.03125 "/></g></g></g><g fill="#0a6036" fill-opacity="1"><g transform="translate(309.115937, 19.77281)"><g><path d="M 17.109375 -0.59375 C 17.203125 -0.425781 17.222656 -0.28125 17.171875 -0.15625 C 17.128906 -0.0390625 17.019531 0.015625 16.84375 0.015625 L 14.109375 0.015625 C 13.921875 0.015625 13.757812 -0.0664062 13.625 -0.234375 L 8.234375 -9.515625 L 5.234375 -6.578125 L 5.234375 -0.359375 C 5.234375 -0.109375 5.109375 0.015625 4.859375 0.015625 L 2.421875 0.015625 C 2.171875 0.015625 2.046875 -0.109375 2.046875 -0.359375 L 2.046875 -16.796875 C 2.046875 -17.046875 2.171875 -17.171875 2.421875 -17.171875 L 4.859375 -17.171875 C 5.109375 -17.171875 5.234375 -17.046875 5.234375 -16.796875 L 5.234375 -10.640625 L 11.625 -16.8125 C 11.757812 -16.945312 11.878906 -17.035156 11.984375 -17.078125 C 12.085938 -17.128906 12.210938 -17.15625 12.359375 -17.15625 L 15.15625 -17.15625 C 15.34375 -17.15625 15.457031 -17.078125 15.5 -16.921875 C 15.550781 -16.773438 15.507812 -16.640625 15.375 -16.515625 L 10.53125 -11.765625 Z M 17.109375 -0.59375 "/></g></g></g><g fill="#0a6036" fill-opacity="1"><g transform="translate(345.172054, 19.77281)"><g><path d="M 14.46875 -3.03125 C 14.675781 -3.03125 14.84375 -2.972656 14.96875 -2.859375 C 15.09375 -2.742188 15.15625 -2.585938 15.15625 -2.390625 L 15.15625 -0.5 C 15.15625 -0.34375 15.109375 -0.21875 15.015625 -0.125 C 14.921875 -0.0390625 14.796875 0 14.640625 0 L 2.546875 0 C 2.210938 0 2.046875 -0.164062 2.046875 -0.5 L 2.046875 -16.640625 C 2.046875 -16.984375 2.210938 -17.15625 2.546875 -17.15625 L 14.390625 -17.15625 C 14.554688 -17.15625 14.6875 -17.109375 14.78125 -17.015625 C 14.875 -16.921875 14.921875 -16.800781 14.921875 -16.65625 L 14.921875 -14.640625 C 14.921875 -14.296875 14.742188 -14.125 14.390625 -14.125 L 5.234375 -14.125 L 5.234375 -9.390625 L 12.40625 -9.390625 C 12.59375 -9.390625 12.738281 -9.34375 12.84375 -9.25 C 12.957031 -9.164062 13.015625 -9.035156 13.015625 -8.859375 L 13.015625 -6.984375 C 13.015625 -6.828125 12.957031 -6.703125 12.84375 -6.609375 C 12.738281 -6.515625 12.59375 -6.46875 12.40625 -6.46875 L 5.234375 -6.46875 L 5.234375 -3.03125 Z M 14.46875 -3.03125 "/></g></g></g><g fill="#0a6036" fill-opacity="1"><g transform="translate(379.97489, 19.77281)"><g><path d="M 12.8125 -5.0625 L 15.125 -0.578125 C 15.207031 -0.410156 15.21875 -0.269531 15.15625 -0.15625 C 15.09375 -0.0390625 14.972656 0.015625 14.796875 0.015625 L 12.3125 0.015625 C 12.207031 0.015625 12.097656 -0.0195312 11.984375 -0.09375 C 11.878906 -0.175781 11.796875 -0.28125 11.734375 -0.40625 L 9.953125 -4.046875 C 9.765625 -4.015625 9.570312 -3.992188 9.375 -3.984375 C 9.1875 -3.972656 8.988281 -3.96875 8.78125 -3.96875 L 5.234375 -3.96875 L 5.234375 -0.484375 C 5.234375 -0.335938 5.1875 -0.21875 5.09375 -0.125 C 5 -0.03125 4.875 0.015625 4.71875 0.015625 L 2.546875 0.015625 C 2.410156 0.015625 2.289062 -0.03125 2.1875 -0.125 C 2.09375 -0.21875 2.046875 -0.335938 2.046875 -0.484375 L 2.046875 -16.671875 C 2.046875 -16.804688 2.09375 -16.921875 2.1875 -17.015625 C 2.289062 -17.109375 2.410156 -17.15625 2.546875 -17.15625 L 3.109375 -17.15625 C 3.441406 -17.15625 3.769531 -17.15625 4.09375 -17.15625 C 4.414062 -17.15625 4.644531 -17.15625 4.78125 -17.15625 L 8.78125 -17.15625 C 9.789062 -17.15625 10.71875 -16.988281 11.5625 -16.65625 C 12.40625 -16.332031 13.132812 -15.875 13.75 -15.28125 C 14.375 -14.6875 14.859375 -13.984375 15.203125 -13.171875 C 15.546875 -12.359375 15.71875 -11.46875 15.71875 -10.5 C 15.71875 -9.332031 15.457031 -8.28125 14.9375 -7.34375 C 14.414062 -6.40625 13.707031 -5.644531 12.8125 -5.0625 Z M 8.578125 -6.625 C 9.347656 -6.625 10.03125 -6.789062 10.625 -7.125 C 11.21875 -7.457031 11.679688 -7.914062 12.015625 -8.5 C 12.359375 -9.09375 12.53125 -9.769531 12.53125 -10.53125 C 12.53125 -11.082031 12.429688 -11.59375 12.234375 -12.0625 C 12.035156 -12.53125 11.757812 -12.9375 11.40625 -13.28125 C 11.050781 -13.625 10.628906 -13.890625 10.140625 -14.078125 C 9.660156 -14.265625 9.140625 -14.359375 8.578125 -14.359375 L 5.234375 -14.359375 L 5.234375 -6.625 Z M 8.578125 -6.625 "/></g></g></g><g fill="#0a6036" fill-opacity="1"><g transform="translate(415.601957, 19.77281)"><g><path d="M 6.625 -4.9375 L 6.625 -16.765625 C 6.625 -17.023438 6.765625 -17.15625 7.046875 -17.15625 L 9.375 -17.15625 C 9.664062 -17.15625 9.8125 -17.023438 9.8125 -16.765625 L 9.8125 -4.90625 C 9.8125 -3.851562 9.601562 -2.9375 9.1875 -2.15625 C 8.769531 -1.382812 8.175781 -0.785156 7.40625 -0.359375 C 6.644531 0.0546875 5.742188 0.265625 4.703125 0.265625 C 3.847656 0.265625 3.0625 0.0859375 2.34375 -0.265625 C 1.632812 -0.617188 1.050781 -1.140625 0.59375 -1.828125 C 0.375 -2.117188 0.375 -2.351562 0.59375 -2.53125 L 2.140625 -3.9375 C 2.242188 -4.039062 2.359375 -4.082031 2.484375 -4.0625 C 2.617188 -4.050781 2.734375 -3.984375 2.828125 -3.859375 C 3.015625 -3.535156 3.269531 -3.28125 3.59375 -3.09375 C 3.925781 -2.914062 4.296875 -2.828125 4.703125 -2.828125 C 5.285156 -2.828125 5.75 -3.023438 6.09375 -3.421875 C 6.445312 -3.816406 6.625 -4.320312 6.625 -4.9375 Z M 6.625 -4.9375 "/></g></g></g><g fill="#0a6036" fill-opacity="1"><g transform="translate(445.651353, 19.77281)"><g><path d="M 16.609375 -0.546875 C 16.679688 -0.390625 16.679688 -0.253906 16.609375 -0.140625 C 16.546875 -0.0351562 16.421875 0.015625 16.234375 0.015625 L 13.8125 0.015625 C 13.6875 0.015625 13.570312 -0.0234375 13.46875 -0.109375 C 13.363281 -0.191406 13.285156 -0.296875 13.234375 -0.421875 L 12.546875 -2.09375 L 4.65625 -2.09375 L 3.96875 -0.421875 C 3.914062 -0.304688 3.84375 -0.203125 3.75 -0.109375 C 3.65625 -0.0234375 3.535156 0.015625 3.390625 0.015625 L 0.96875 0.015625 C 0.78125 0.015625 0.648438 -0.0351562 0.578125 -0.140625 C 0.503906 -0.253906 0.507812 -0.394531 0.59375 -0.5625 L 7.890625 -16.9375 C 7.953125 -17.070312 8.039062 -17.175781 8.15625 -17.25 C 8.269531 -17.332031 8.390625 -17.375 8.515625 -17.375 L 8.65625 -17.375 C 8.789062 -17.375 8.910156 -17.332031 9.015625 -17.25 C 9.128906 -17.164062 9.21875 -17.054688 9.28125 -16.921875 Z M 5.78125 -4.828125 L 11.421875 -4.828125 L 8.609375 -11.65625 Z M 5.78125 -4.828125 "/></g></g></g><g fill="#0a6036" fill-opacity="1"><g transform="translate(481.346165, 19.77281)"><g><path d="M 16.609375 -0.546875 C 16.679688 -0.390625 16.679688 -0.253906 16.609375 -0.140625 C 16.546875 -0.0351562 16.421875 0.015625 16.234375 0.015625 L 13.8125 0.015625 C 13.6875 0.015625 13.570312 -0.0234375 13.46875 -0.109375 C 13.363281 -0.191406 13.285156 -0.296875 13.234375 -0.421875 L 12.546875 -2.09375 L 4.65625 -2.09375 L 3.96875 -0.421875 C 3.914062 -0.304688 3.84375 -0.203125 3.75 -0.109375 C 3.65625 -0.0234375 3.535156 0.015625 3.390625 0.015625 L 0.96875 0.015625 C 0.78125 0.015625 0.648438 -0.0351562 0.578125 -0.140625 C 0.503906 -0.253906 0.507812 -0.394531 0.59375 -0.5625 L 7.890625 -16.9375 C 7.953125 -17.070312 8.039062 -17.175781 8.15625 -17.25 C 8.269531 -17.332031 8.390625 -17.375 8.515625 -17.375 L 8.65625 -17.375 C 8.789062 -17.375 8.910156 -17.332031 9.015625 -17.25 C 9.128906 -17.164062 9.21875 -17.054688 9.28125 -16.921875 Z M 5.78125 -4.828125 L 11.421875 -4.828125 L 8.609375 -11.65625 Z M 5.78125 -4.828125 "/></g></g></g><g fill="#0a6036" fill-opacity="1"><g transform="translate(517.041005, 19.77281)"><g><path d="M 16.9375 -17.171875 C 17.195312 -17.171875 17.328125 -17.046875 17.328125 -16.796875 L 17.328125 -0.3125 C 17.328125 -0.144531 17.28125 -0.015625 17.1875 0.078125 C 17.101562 0.171875 17 0.21875 16.875 0.21875 L 16.859375 0.21875 C 16.710938 0.21875 16.585938 0.175781 16.484375 0.09375 C 16.390625 0.0195312 16.28125 -0.0703125 16.15625 -0.1875 L 5.234375 -10.546875 L 5.234375 -0.359375 C 5.234375 -0.109375 5.109375 0.015625 4.859375 0.015625 L 2.421875 0.015625 C 2.171875 0.015625 2.046875 -0.109375 2.046875 -0.359375 L 2.046875 -16.875 C 2.046875 -17.019531 2.082031 -17.140625 2.15625 -17.234375 C 2.238281 -17.328125 2.34375 -17.375 2.46875 -17.375 L 2.5 -17.375 C 2.625 -17.375 2.726562 -17.332031 2.8125 -17.25 C 2.90625 -17.164062 3.015625 -17.070312 3.140625 -16.96875 L 14.140625 -6.5625 L 14.140625 -16.796875 C 14.140625 -17.046875 14.265625 -17.171875 14.515625 -17.171875 Z M 16.9375 -17.171875 "/></g></g></g></g></g></svg>