<svg xmlns="http://www.w3.org/2000/svg" xmlns:xlink="http://www.w3.org/1999/xlink" width="500" zoomAndPan="magnify" viewBox="0 0 375 374.999991" height="500" preserveAspectRatio="xMidYMid meet" version="1.0"><defs><clipPath id="36b7a01b5c"><path d="M 116 203 L 361.46875 203 L 361.46875 352 L 116 352 Z M 116 203 " clip-rule="nonzero"/></clipPath><clipPath id="a6c4f9c675"><path d="M 13.46875 6.214844 L 334 6.214844 L 334 368.464844 L 13.46875 368.464844 Z M 13.46875 6.214844 " clip-rule="nonzero"/></clipPath></defs><g clip-path="url(#36b7a01b5c)"><path fill="#0a6036" d="M 295.242188 290.929688 C 306.128906 271.902344 312.347656 249.863281 312.347656 226.371094 C 312.347656 218.605469 311.667969 211.003906 310.363281 203.617188 C 305.089844 232.917969 289.511719 258.648438 267.503906 276.894531 C 254.773438 287.453125 235.816406 285.3125 225.851562 272.109375 L 207.253906 247.46875 C 204.164062 243.367188 199.324219 240.957031 194.1875 240.957031 L 123.328125 240.957031 C 123.3125 240.957031 123.296875 240.960938 123.28125 240.960938 C 118.445312 240.996094 115.3125 246.09375 117.484375 250.425781 L 120.304688 256.042969 C 125.546875 266.488281 135.871094 273.429688 147.519531 274.347656 L 151.71875 274.675781 L 170.097656 276.125 C 175.296875 276.535156 179.988281 279.410156 182.710938 283.863281 L 191.042969 297.492188 L 195.710938 305.125 L 221.851562 347.882812 C 222.316406 348.648438 222.898438 349.3125 223.5625 349.871094 C 225.480469 351.472656 228.074219 352.140625 230.59375 351.519531 C 230.613281 351.511719 230.628906 351.507812 230.648438 351.503906 C 298.453125 334.769531 350.691406 278.523438 361.535156 208.589844 C 352.011719 244.464844 327.566406 274.269531 295.242188 290.929688 " fill-opacity="1" fill-rule="nonzero"/></g><g clip-path="url(#a6c4f9c675)"><path fill="#025384" d="M 177.710938 286.921875 C 175.972656 284.078125 172.953125 282.226562 169.636719 281.964844 L 147.0625 280.1875 C 133.453125 279.117188 121.191406 270.875 115.066406 258.671875 L 112.394531 253.355469 C 110.496094 249.570312 110.453125 245.046875 112.550781 241.367188 C 114.714844 237.574219 118.613281 235.238281 122.9375 235.105469 L 123.328125 235.097656 L 146.015625 235.097656 C 138.617188 223.421875 125.289062 216.855469 111.492188 218.144531 L 87.917969 220.34375 C 77.820312 221.289062 68.746094 214.328125 66.886719 204.359375 C 65.507812 196.96875 64.789062 189.347656 64.789062 181.554688 C 64.789062 142.058594 83.285156 106.882812 112.089844 84.21875 C 83.554688 103.011719 61.34375 130.625 49.363281 163.191406 C 60.15625 84.746094 127.445312 24.324219 208.855469 24.324219 C 259.25 24.324219 304.230469 47.480469 333.753906 83.726562 C 302.378906 37.257812 249.285156 6.664062 189.03125 6.503906 C 92.585938 6.253906 13.660156 84.84375 13.515625 181.292969 C 13.464844 215.242188 23.09375 246.941406 39.777344 273.792969 C 40.128906 274.359375 40.472656 274.929688 40.832031 275.492188 L 64.199219 271.53125 C 74.636719 269.765625 83.226562 279.855469 79.679688 289.832031 C 79.582031 290.105469 79.519531 290.257812 79.519531 290.257812 C 94.5625 295.726562 92.023438 310.378906 92.023438 310.378906 C 105.308594 316.4375 99.839844 328.941406 99.839844 328.941406 C 104.535156 330.882812 106.179688 334.679688 106.605469 335.921875 C 106.824219 336.554688 107.066406 337.179688 107.308594 337.808594 L 116.394531 361.125 C 117.957031 365.132812 122.753906 368.410156 127.054688 368.410156 C 132.484375 368.410156 136.242188 362.984375 134.335938 357.902344 L 130.082031 346.585938 L 124.410156 331.488281 C 124.011719 330.429688 124.734375 329.277344 125.882812 329.191406 C 126.632812 329.136719 127.316406 329.628906 127.605469 330.324219 L 135.058594 348.269531 L 140.574219 361.550781 C 142.476562 366.121094 147.492188 368.746094 152.246094 367.359375 C 157.941406 365.695312 160.777344 359.316406 158.203125 353.976562 C 158.199219 353.972656 158.199219 353.964844 158.195312 353.960938 L 144.546875 325.769531 C 143.960938 324.558594 144.761719 323.136719 146.097656 323.007812 C 146.875 322.933594 147.617188 323.332031 147.984375 324.015625 L 164.59375 354.964844 L 166.652344 358.804688 C 168.683594 362.589844 173.128906 364.558594 177.207031 363.210938 C 180.378906 362.164062 182.488281 359.511719 183.046875 356.511719 C 183.390625 354.683594 183.15625 352.726562 182.226562 350.929688 L 169.226562 325.738281 C 168.65625 324.628906 169.078125 323.207031 170.230469 322.730469 C 171.25 322.304688 172.394531 322.742188 172.894531 323.6875 L 187.582031 351.433594 C 188.769531 353.675781 190.539062 355.414062 192.605469 356.558594 C 196.046875 358.46875 200.320312 358.738281 204.128906 356.941406 C 204.863281 356.597656 205.535156 356.179688 206.167969 355.722656 C 211.375 351.941406 213.007812 344.660156 209.515625 338.945312 L 177.710938 286.921875 " fill-opacity="1" fill-rule="nonzero"/></g><path fill="#0a6036" d="M 50.722656 297.441406 L 69.105469 294.394531 C 74.617188 293.476562 78.347656 288.265625 77.433594 282.75 C 76.519531 277.234375 71.304688 273.503906 65.789062 274.417969 L 47.410156 277.46875 C 41.894531 278.382812 38.164062 283.597656 39.082031 289.109375 C 39.996094 294.628906 45.207031 298.355469 50.722656 297.441406 " fill-opacity="1" fill-rule="nonzero"/><path fill="#0a6036" d="M 86.8125 302.675781 C 85.894531 297.160156 80.683594 293.433594 75.167969 294.347656 L 50.082031 299.144531 C 44.5625 300.058594 40.835938 305.269531 41.75 310.785156 C 42.664062 316.300781 47.878906 320.03125 53.394531 319.117188 L 78.480469 314.320312 C 83.996094 313.40625 87.726562 308.191406 86.8125 302.675781 " fill-opacity="1" fill-rule="nonzero"/><path fill="#0a6036" d="M 95.277344 323.519531 C 94.363281 318 89.148438 314.269531 83.632812 315.1875 L 65.253906 318.234375 C 59.738281 319.148438 56.007812 324.363281 56.925781 329.878906 C 57.839844 335.394531 63.050781 339.125 68.566406 338.207031 L 86.945312 335.160156 C 92.460938 334.246094 96.191406 329.035156 95.277344 323.519531 " fill-opacity="1" fill-rule="nonzero"/><path fill="#0a6036" d="M 96.398438 334.726562 L 81.304688 337.128906 C 75.789062 338.039062 72.058594 343.253906 72.972656 348.769531 C 73.890625 354.285156 79.101562 358.015625 84.617188 357.101562 L 99.710938 354.699219 C 105.226562 353.78125 108.957031 348.570312 108.042969 343.054688 C 107.125 337.539062 101.914062 333.808594 96.398438 334.726562 " fill-opacity="1" fill-rule="nonzero"/></svg>